<svg width="1440" height="800" viewBox="0 0 1440 800" fill="none" xmlns="http://www.w3.org/2000/svg">
<mask id="mask0_745_2763" style="mask-type:luminance" maskUnits="userSpaceOnUse" x="0" y="0" width="1440" height="800">
<path d="M1440 0H0V800H1440V0Z" fill="white"/>
</mask>
<g mask="url(#mask0_745_2763)">
<path d="M1440 0H0V800H1440V0Z" fill="#1D1D1F"/>
<g opacity="0.9">
<g filter="url(#filter0_f_745_2763)">
<path d="M984.469 -548.44L1238.25 -932L1032.97 -520.44L545.754 323.436L317.959 661.989L497.257 295.436L984.469 -548.44Z" fill="url(#paint0_linear_745_2763)" fill-opacity="0.12"/>
</g>
<g filter="url(#filter1_f_745_2763)">
<path d="M1128 -446.805L1364.25 -800L1176.5 -418.805L726.497 360.618L514.249 672.243L678 332.618L1128 -446.805Z" fill="url(#paint1_linear_745_2763)" fill-opacity="0.12"/>
</g>
<g filter="url(#filter2_f_745_2763)">
<path d="M1060.09 -502.53L1328.25 -911L1108.58 -474.53L590.845 422.221L350.296 782.864L542.347 394.221L1060.09 -502.53Z" fill="url(#paint2_linear_745_2763)" fill-opacity="0.2"/>
</g>
<g filter="url(#filter3_f_745_2763)">
<path d="M1013 -414.805L1249.25 -768L1061.5 -386.805L611.497 392.618L399.249 704.243L563 364.618L1013 -414.805Z" fill="url(#paint3_linear_745_2763)" fill-opacity="0.2"/>
</g>
</g>
<path d="M245.376 178.176H137V282.307H245.376V178.176Z" fill="url(#paint4_linear_745_2763)" fill-opacity="0.02"/>
<path d="M454 485.408H351V582.683H454V485.408Z" fill="url(#paint5_linear_745_2763)" fill-opacity="0.02"/>
<path d="M1199.38 479.631H1091V583.762H1199.38V479.631Z" fill="url(#paint6_linear_745_2763)" fill-opacity="0.02"/>
<path d="M457.376 73.1973H349V177.329H457.376V73.1973Z" fill="url(#paint7_linear_745_2763)" fill-opacity="0.02"/>
<path d="M-72.3333 -330.348H-178V-228.82M-72.3333 -330.348V-228.82M-72.3333 -330.348H33.3333M-178 -228.82H-72.3333M-178 -228.82V-127.291M-72.3333 -228.82H33.3333M-72.3333 -228.82V-127.291M33.3333 -330.348V-228.82M33.3333 -330.348H139M33.3333 -228.82H139M33.3333 -228.82V-127.291M-72.3333 -127.291H-178M-72.3333 -127.291H33.3333M-72.3333 -127.291V-25.7631M-178 -127.291V-25.7631M139 -330.348V-228.82M139 -330.348H244.667M139 -228.82H244.667M139 -228.82V-127.291M33.3333 -127.291H139M33.3333 -127.291V-25.7631M244.667 -330.348V-228.82M244.667 -330.348H350.333M244.667 -228.82H350.333M244.667 -228.82V-127.291M139 -127.291H244.667M139 -127.291V-25.7631M350.333 -330.348V-228.82M350.333 -330.348H456M350.333 -228.82H456M350.333 -228.82V-127.291M244.667 -127.291H350.333M244.667 -127.291V-25.7631M456 -330.348V-228.82M456 -330.348H561.667M456 -228.82H561.667M456 -228.82V-127.291M350.333 -127.291H456M350.333 -127.291V-25.7631M561.667 -330.348V-228.82M561.667 -330.348H667.333M561.667 -228.82H667.333M561.667 -228.82V-127.291M456 -127.291H561.667M456 -127.291V-25.7631M667.333 -330.348V-228.82M667.333 -330.348H773M667.333 -228.82H773M667.333 -228.82V-127.291M561.667 -127.291H667.333M561.667 -127.291V-25.7631M773 -330.348V-228.82M773 -330.348H878.667M773 -228.82H878.667M773 -228.82V-127.291M667.333 -127.291H773M667.333 -127.291V-25.7631M878.667 -330.348V-228.82M878.667 -330.348H984.333M878.667 -228.82H984.333M878.667 -228.82V-127.291M773 -127.291H878.667M773 -127.291V-25.7631M984.333 -330.348V-228.82M984.333 -330.348H1090M984.333 -228.82H1090M984.333 -228.82V-127.291M878.667 -127.291H984.333M878.667 -127.291V-25.7631M1090 -330.348V-228.82M1090 -330.348H1195.67M1090 -228.82H1195.67M1090 -228.82V-127.291M984.333 -127.291H1090M984.333 -127.291V-25.7631M1195.67 -330.348V-228.82M1195.67 -330.348H1301.33M1195.67 -228.82H1301.33M1195.67 -228.82V-127.291M1090 -127.291H1195.67M1090 -127.291V-25.7631M1301.33 -330.348V-228.82M1301.33 -330.348H1407M1301.33 -228.82H1407M1301.33 -228.82V-127.291M1195.67 -127.291H1301.33M1195.67 -127.291V-25.7631M1407 -330.348V-228.82M1407 -330.348H1512.67M1407 -228.82H1512.67M1407 -228.82V-127.291M1301.33 -127.291H1407M1301.33 -127.291V-25.7631M1512.67 -330.348V-228.82M1512.67 -330.348H1618.33V-228.82M1512.67 -228.82H1618.33M1512.67 -228.82V-127.291M1407 -127.291H1512.67M1407 -127.291V-25.7631M1618.33 -228.82V-127.291M1512.67 -127.291H1618.33M1512.67 -127.291V-25.7631M1618.33 -127.291V-25.7631M-72.3333 -25.7631H-178M-72.3333 -25.7631H33.3333M-72.3333 -25.7631V75.765M-178 -25.7631V75.765M33.3333 -25.7631H139M33.3333 -25.7631V75.765M139 -25.7631H244.667M139 -25.7631V75.765M244.667 -25.7631H350.333M244.667 -25.7631V75.765M350.333 -25.7631H456M350.333 -25.7631V75.765M456 -25.7631H561.667M456 -25.7631V75.765M561.667 -25.7631H667.333M561.667 -25.7631V75.765M667.333 -25.7631H773M667.333 -25.7631V75.765M773 -25.7631H878.667M773 -25.7631V75.765M878.667 -25.7631H984.333M878.667 -25.7631V75.765M984.333 -25.7631H1090M984.333 -25.7631V75.765M1090 -25.7631H1195.67M1090 -25.7631V75.765M1195.67 -25.7631H1301.33M1195.67 -25.7631V75.765M1301.33 -25.7631H1407M1301.33 -25.7631V75.765M1407 -25.7631H1512.67M1407 -25.7631V75.765M1512.67 -25.7631H1618.33M1512.67 -25.7631V75.765M1618.33 -25.7631V75.765M-72.3333 75.765H-178M-72.3333 75.765H33.3333M-72.3333 75.765V177.293M-178 75.765V177.293M33.3333 75.765H139M33.3333 75.765V177.293M139 75.765H244.667M139 75.765V177.293M244.667 75.765H350.333M244.667 75.765V177.293M350.333 75.765H456M350.333 75.765V177.293M456 75.765H561.667M456 75.765V177.293M561.667 75.765H667.333M561.667 75.765V177.293M667.333 75.765H773M667.333 75.765V177.293M773 75.765H878.667M773 75.765V177.293M878.667 75.765H984.333M878.667 75.765V177.293M984.333 75.765H1090M984.333 75.765V177.293M1090 75.765H1195.67M1090 75.765V177.293M1195.67 75.765H1301.33M1195.67 75.765V177.293M1301.33 75.765H1407M1301.33 75.765V177.293M1407 75.765H1512.67M1407 75.765V177.293M1512.67 75.765H1618.33M1512.67 75.765V177.293M1618.33 75.765V177.293M-72.3333 177.293H-178M-72.3333 177.293H33.3333M-72.3333 177.293V278.821M-178 177.293V278.821M33.3333 177.293H139M33.3333 177.293V278.821M139 177.293H244.667M139 177.293V278.821M244.667 177.293H350.333M244.667 177.293V278.821M350.333 177.293H456M350.333 177.293V278.821M456 177.293H561.667M456 177.293V278.821M561.667 177.293H667.333M561.667 177.293V278.821M667.333 177.293H773M667.333 177.293V278.821M773 177.293H878.667M773 177.293V278.821M878.667 177.293H984.333M878.667 177.293V278.821M984.333 177.293H1090M984.333 177.293V278.821M1090 177.293H1195.67M1090 177.293V278.821M1195.67 177.293H1301.33M1195.67 177.293V278.821M1301.33 177.293H1407M1301.33 177.293V278.821M1407 177.293H1512.67M1407 177.293V278.821M1512.67 177.293H1618.33M1512.67 177.293V278.821M1618.33 177.293V278.821M-72.3333 278.821H-178M-72.3333 278.821H33.3333M-72.3333 278.821V380.349M-178 278.821V380.349M33.3333 278.821H139M33.3333 278.821V380.349M139 278.821H244.667M139 278.821V380.349M244.667 278.821H350.333M244.667 278.821V380.349M350.333 278.821H456M350.333 278.821V380.349M456 278.821H561.667M456 278.821V380.349M561.667 278.821H667.333M561.667 278.821V380.349M667.333 278.821H773M667.333 278.821V380.349M773 278.821H878.667M773 278.821V380.349M878.667 278.821H984.333M878.667 278.821V380.349M984.333 278.821H1090M984.333 278.821V380.349M1090 278.821H1195.67M1090 278.821V380.349M1195.67 278.821H1301.33M1195.67 278.821V380.349M1301.33 278.821H1407M1301.33 278.821V380.349M1407 278.821H1512.67M1407 278.821V380.349M1512.67 278.821H1618.33M1512.67 278.821V380.349M1618.33 278.821V380.349M-72.3333 380.349H-178M-72.3333 380.349H33.3333M-72.3333 380.349V481.877M-178 380.349V481.877M33.3333 380.349H139M33.3333 380.349V481.877M139 380.349H244.667M139 380.349V481.877M244.667 380.349H350.333M244.667 380.349V481.877M350.333 380.349H456M350.333 380.349V481.877M456 380.349H561.667M456 380.349V481.877M561.667 380.349H667.333M561.667 380.349V481.877M667.333 380.349H773M667.333 380.349V481.877M773 380.349H878.667M773 380.349V481.877M878.667 380.349H984.333M878.667 380.349V481.877M984.333 380.349H1090M984.333 380.349V481.877M1090 380.349H1195.67M1090 380.349V481.877M1195.67 380.349H1301.33M1195.67 380.349V481.877M1301.33 380.349H1407M1301.33 380.349V481.877M1407 380.349H1512.67M1407 380.349V481.877M1512.67 380.349H1618.33M1512.67 380.349V481.877M1618.33 380.349V481.877M-72.3333 481.877H-178M-72.3333 481.877H33.3333M-72.3333 481.877V583.405M-178 481.877V583.405M33.3333 481.877H139M33.3333 481.877V583.405M139 481.877H244.667M139 481.877V583.405M244.667 481.877H350.333M244.667 481.877V583.405M350.333 481.877H456M350.333 481.877V583.405M456 481.877H561.667M456 481.877V583.405M561.667 481.877H667.333M561.667 481.877V583.405M667.333 481.877H773M667.333 481.877V583.405M773 481.877H878.667M773 481.877V583.405M878.667 481.877H984.333M878.667 481.877V583.405M984.333 481.877H1090M984.333 481.877V583.405M1090 481.877H1195.67M1090 481.877V583.405M1195.67 481.877H1301.33M1195.67 481.877V583.405M1301.33 481.877H1407M1301.33 481.877V583.405M1407 481.877H1512.67M1407 481.877V583.405M1512.67 481.877H1618.33M1512.67 481.877V583.405M1618.33 481.877V583.405M-72.3333 583.405H-178M-72.3333 583.405H33.3333M-72.3333 583.405V684.933M-178 583.405V684.933M33.3333 583.405H139M33.3333 583.405V684.933M139 583.405H244.667M139 583.405V684.933M244.667 583.405H350.333M244.667 583.405V684.933M350.333 583.405H456M350.333 583.405V684.933M456 583.405H561.667M456 583.405V684.933M561.667 583.405H667.333M561.667 583.405V684.933M667.333 583.405H773M667.333 583.405V684.933M773 583.405H878.667M773 583.405V684.933M878.667 583.405H984.333M878.667 583.405V684.933M984.333 583.405H1090M984.333 583.405V684.933M1090 583.405H1195.67M1090 583.405V684.933M1195.67 583.405H1301.33M1195.67 583.405V684.933M1301.33 583.405H1407M1301.33 583.405V684.933M1407 583.405H1512.67M1407 583.405V684.933M1512.67 583.405H1618.33M1512.67 583.405V684.933M1618.33 583.405V684.933M-72.3333 684.933H-178M-72.3333 684.933H33.3333M-72.3333 684.933V786.461M-178 684.933V786.461M33.3333 684.933H139M33.3333 684.933V786.461M139 684.933H244.667M139 684.933V786.461M244.667 684.933H350.333M244.667 684.933V786.461M350.333 684.933H456M350.333 684.933V786.461M456 684.933H561.667M456 684.933V786.461M561.667 684.933H667.333M561.667 684.933V786.461M667.333 684.933H773M667.333 684.933V786.461M773 684.933H878.667M773 684.933V786.461M878.667 684.933H984.333M878.667 684.933V786.461M984.333 684.933H1090M984.333 684.933V786.461M1090 684.933H1195.67M1090 684.933V786.461M1195.67 684.933H1301.33M1195.67 684.933V786.461M1301.33 684.933H1407M1301.33 684.933V786.461M1407 684.933H1512.67M1407 684.933V786.461M1512.67 684.933H1618.33M1512.67 684.933V786.461M1618.33 684.933V786.461M-72.3333 786.461H-178M-72.3333 786.461H33.3333M-72.3333 786.461V887.99M-178 786.461V887.99H-72.3333M33.3333 786.461H139M33.3333 786.461V887.99M139 786.461H244.667M139 786.461V887.99M244.667 786.461H350.333M244.667 786.461V887.99M350.333 786.461H456M350.333 786.461V887.99M456 786.461H561.667M456 786.461V887.99M561.667 786.461H667.333M561.667 786.461V887.99M667.333 786.461H773M667.333 786.461V887.99M773 786.461H878.667M773 786.461V887.99M878.667 786.461H984.333M878.667 786.461V887.99M984.333 786.461H1090M984.333 786.461V887.99M1090 786.461H1195.67M1090 786.461V887.99M1195.67 786.461H1301.33M1195.67 786.461V887.99M1301.33 786.461H1407M1301.33 786.461V887.99M1407 786.461H1512.67M1407 786.461V887.99M1512.67 786.461H1618.33M1512.67 786.461V887.99M1618.33 786.461V887.99H1512.67M-72.3333 887.99H33.3333M33.3333 887.99H139M139 887.99H244.667M244.667 887.99H350.333M350.333 887.99H456M456 887.99H561.667M561.667 887.99H667.333M667.333 887.99H773M773 887.99H878.667M878.667 887.99H984.333M984.333 887.99H1090M1090 887.99H1195.67M1195.67 887.99H1301.33M1301.33 887.99H1407M1407 887.99H1512.67" stroke="url(#paint8_radial_745_2763)" stroke-opacity="0.08" stroke-width="2"/>
<path d="M986.376 72.2344H878V176.366H986.376V72.2344Z" fill="url(#paint9_linear_745_2763)" fill-opacity="0.02"/>
<path d="M1302.04 750.814C1302.59 750.814 1303.04 750.367 1303.04 749.814C1303.04 749.262 1302.59 748.814 1302.04 748.814C1301.49 748.814 1301.04 749.262 1301.04 749.814C1301.04 750.367 1301.49 750.814 1302.04 750.814Z" fill="white" fill-opacity="0.05"/>
<path d="M1336.16 496.531C1336.71 496.531 1337.16 496.084 1337.16 495.531C1337.16 494.979 1336.71 494.531 1336.16 494.531C1335.61 494.531 1335.16 494.979 1335.16 495.531C1335.16 496.084 1335.61 496.531 1336.16 496.531Z" fill="white" fill-opacity="0.15"/>
<path d="M1335.73 556.656C1336.28 556.656 1336.73 556.209 1336.73 555.656C1336.73 555.104 1336.28 554.656 1335.73 554.656C1335.18 554.656 1334.73 555.104 1334.73 555.656C1334.73 556.209 1335.18 556.656 1335.73 556.656Z" fill="white" fill-opacity="0.1"/>
<path d="M951.026 530.525C951.578 530.525 952.026 530.078 952.026 529.525C952.026 528.973 951.578 528.525 951.026 528.525C950.474 528.525 950.026 528.973 950.026 529.525C950.026 530.078 950.474 530.525 951.026 530.525Z" fill="white" fill-opacity="0.1"/>
<path d="M565.808 213.883C566.36 213.883 566.808 213.435 566.808 212.883C566.808 212.331 566.36 211.883 565.808 211.883C565.256 211.883 564.808 212.331 564.808 212.883C564.808 213.435 565.256 213.883 565.808 213.883Z" fill="white" fill-opacity="0.1"/>
<path d="M554.623 793.232C555.175 793.232 555.623 792.785 555.623 792.232C555.623 791.68 555.175 791.232 554.623 791.232C554.071 791.232 553.623 791.68 553.623 792.232C553.623 792.785 554.071 793.232 554.623 793.232Z" fill="white" fill-opacity="0.15"/>
<path d="M413.907 275.979C414.46 275.979 414.907 275.531 414.907 274.979C414.907 274.426 414.46 273.979 413.907 273.979C413.355 273.979 412.907 274.426 412.907 274.979C412.907 275.531 413.355 275.979 413.907 275.979Z" fill="white" fill-opacity="0.25"/>
<path d="M1361.82 333.309C1362.37 333.309 1362.82 332.861 1362.82 332.309C1362.82 331.756 1362.37 331.309 1361.82 331.309C1361.27 331.309 1360.82 331.756 1360.82 332.309C1360.82 332.861 1361.27 333.309 1361.82 333.309Z" fill="white" fill-opacity="0.1"/>
<path d="M1239.91 283.779C1240.46 283.779 1240.91 283.332 1240.91 282.779C1240.91 282.227 1240.46 281.779 1239.91 281.779C1239.36 281.779 1238.91 282.227 1238.91 282.779C1238.91 283.332 1239.36 283.779 1239.91 283.779Z" fill="white"/>
<path d="M267.742 137.029C268.294 137.029 268.742 136.582 268.742 136.029C268.742 135.477 268.294 135.029 267.742 135.029C267.19 135.029 266.742 135.477 266.742 136.029C266.742 136.582 267.19 137.029 267.742 137.029Z" fill="white" fill-opacity="0.25"/>
<path d="M304.961 629.152C305.513 629.152 305.961 628.705 305.961 628.152C305.961 627.6 305.513 627.152 304.961 627.152C304.409 627.152 303.961 627.6 303.961 628.152C303.961 628.705 304.409 629.152 304.961 629.152Z" fill="white" fill-opacity="0.1"/>
<path d="M482.067 672.105C482.619 672.105 483.067 671.658 483.067 671.105C483.067 670.553 482.619 670.105 482.067 670.105C481.515 670.105 481.067 670.553 481.067 671.105C481.067 671.658 481.515 672.105 482.067 672.105Z" fill="white" fill-opacity="0.05"/>
<path d="M746.014 694.666C746.566 694.666 747.014 694.218 747.014 693.666C747.014 693.114 746.566 692.666 746.014 692.666C745.462 692.666 745.014 693.114 745.014 693.666C745.014 694.218 745.462 694.666 746.014 694.666Z" fill="white" fill-opacity="0.1"/>
<path d="M1159.78 467.781C1160.33 467.781 1160.78 467.334 1160.78 466.781C1160.78 466.229 1160.33 465.781 1159.78 465.781C1159.23 465.781 1158.78 466.229 1158.78 466.781C1158.78 467.334 1159.23 467.781 1159.78 467.781Z" fill="white" fill-opacity="0.05"/>
<path d="M49.8857 181.963C50.438 181.963 50.8857 181.515 50.8857 180.963C50.8857 180.411 50.438 179.963 49.8857 179.963C49.3335 179.963 48.8857 180.411 48.8857 180.963C48.8857 181.515 49.3335 181.963 49.8857 181.963Z" fill="white" fill-opacity="0.05"/>
<path d="M1044.91 529.127C1045.46 529.127 1045.91 528.679 1045.91 528.127C1045.91 527.575 1045.46 527.127 1044.91 527.127C1044.36 527.127 1043.91 527.575 1043.91 528.127C1043.91 528.679 1044.36 529.127 1044.91 529.127Z" fill="white" fill-opacity="0.25"/>
<path d="M451.473 273.957C452.025 273.957 452.473 273.509 452.473 272.957C452.473 272.405 452.025 271.957 451.473 271.957C450.921 271.957 450.473 272.405 450.473 272.957C450.473 273.509 450.921 273.957 451.473 273.957Z" fill="white" fill-opacity="0.15"/>
<path d="M318.93 232.318C319.482 232.318 319.93 231.871 319.93 231.318C319.93 230.766 319.482 230.318 318.93 230.318C318.378 230.318 317.93 230.766 317.93 231.318C317.93 231.871 318.378 232.318 318.93 232.318Z" fill="white" fill-opacity="0.15"/>
<path d="M1279.47 729.393C1280.02 729.393 1280.47 728.945 1280.47 728.393C1280.47 727.84 1280.02 727.393 1279.47 727.393C1278.92 727.393 1278.47 727.84 1278.47 728.393C1278.47 728.945 1278.92 729.393 1279.47 729.393Z" fill="white" fill-opacity="0.05"/>
<path d="M638.88 316.643C639.432 316.643 639.88 316.195 639.88 315.643C639.88 315.09 639.432 314.643 638.88 314.643C638.328 314.643 637.88 315.09 637.88 315.643C637.88 316.195 638.328 316.643 638.88 316.643Z" fill="white" fill-opacity="0.25"/>
<path d="M1197.3 13.8398C1197.85 13.8398 1198.3 13.3921 1198.3 12.8398C1198.3 12.2876 1197.85 11.8398 1197.3 11.8398C1196.75 11.8398 1196.3 12.2876 1196.3 12.8398C1196.3 13.3921 1196.75 13.8398 1197.3 13.8398Z" fill="white" fill-opacity="0.25"/>
<path d="M506.723 308.648C507.275 308.648 507.723 308.201 507.723 307.648C507.723 307.096 507.275 306.648 506.723 306.648C506.171 306.648 505.723 307.096 505.723 307.648C505.723 308.201 506.171 308.648 506.723 308.648Z" fill="white" fill-opacity="0.05"/>
<path d="M482.297 297.832C482.849 297.832 483.297 297.384 483.297 296.832C483.297 296.28 482.849 295.832 482.297 295.832C481.745 295.832 481.297 296.28 481.297 296.832C481.297 297.384 481.745 297.832 482.297 297.832Z" fill="white" fill-opacity="0.1"/>
<path d="M464.194 681.041C464.746 681.041 465.194 680.593 465.194 680.041C465.194 679.489 464.746 679.041 464.194 679.041C463.642 679.041 463.194 679.489 463.194 680.041C463.194 680.593 463.642 681.041 464.194 681.041Z" fill="white" fill-opacity="0.25"/>
<path d="M1290 692.1C1290.55 692.1 1291 691.652 1291 691.1C1291 690.547 1290.55 690.1 1290 690.1C1289.45 690.1 1289 690.547 1289 691.1C1289 691.652 1289.45 692.1 1290 692.1Z" fill="white" fill-opacity="0.1"/>
<path d="M1262.98 40.9082C1263.53 40.9082 1263.98 40.4605 1263.98 39.9082C1263.98 39.3559 1263.53 38.9082 1262.98 38.9082C1262.43 38.9082 1261.98 39.3559 1261.98 39.9082C1261.98 40.4605 1262.43 40.9082 1262.98 40.9082Z" fill="white" fill-opacity="0.25"/>
<path d="M1024.84 183.654C1025.39 183.654 1025.84 183.207 1025.84 182.654C1025.84 182.102 1025.39 181.654 1024.84 181.654C1024.29 181.654 1023.84 182.102 1023.84 182.654C1023.84 183.207 1024.29 183.654 1024.84 183.654Z" fill="white" fill-opacity="0.15"/>
<path d="M993.237 370.359C993.79 370.359 994.237 369.912 994.237 369.359C994.237 368.807 993.79 368.359 993.237 368.359C992.685 368.359 992.237 368.807 992.237 369.359C992.237 369.912 992.685 370.359 993.237 370.359Z" fill="white" fill-opacity="0.05"/>
<path d="M960.264 626.371C960.816 626.371 961.264 625.923 961.264 625.371C961.264 624.819 960.816 624.371 960.264 624.371C959.711 624.371 959.264 624.819 959.264 625.371C959.264 625.923 959.711 626.371 960.264 626.371Z" fill="white"/>
<path d="M1163.88 762.004C1164.43 762.004 1164.88 761.556 1164.88 761.004C1164.88 760.452 1164.43 760.004 1163.88 760.004C1163.33 760.004 1162.88 760.452 1162.88 761.004C1162.88 761.556 1163.33 762.004 1163.88 762.004Z" fill="white" fill-opacity="0.25"/>
<path d="M315.27 783.965C315.822 783.965 316.27 783.517 316.27 782.965C316.27 782.413 315.822 781.965 315.27 781.965C314.718 781.965 314.27 782.413 314.27 782.965C314.27 783.517 314.718 783.965 315.27 783.965Z" fill="white" fill-opacity="0.05"/>
<path d="M1053.55 604.562C1054.1 604.562 1054.55 604.115 1054.55 603.562C1054.55 603.01 1054.1 602.562 1053.55 602.562C1053 602.562 1052.55 603.01 1052.55 603.562C1052.55 604.115 1053 604.562 1053.55 604.562Z" fill="white" fill-opacity="0.25"/>
<path d="M719.777 169.4C720.053 169.4 720.277 169.177 720.277 168.9C720.277 168.624 720.053 168.4 719.777 168.4C719.501 168.4 719.277 168.624 719.277 168.9C719.277 169.177 719.501 169.4 719.777 169.4Z" fill="white" fill-opacity="0.05"/>
<path d="M411.169 76.2852C411.445 76.2852 411.669 76.0613 411.669 75.7852C411.669 75.509 411.445 75.2852 411.169 75.2852C410.893 75.2852 410.669 75.509 410.669 75.7852C410.669 76.0613 410.893 76.2852 411.169 76.2852Z" fill="white" fill-opacity="0.05"/>
<path d="M547.281 146.725C547.557 146.725 547.781 146.501 547.781 146.225C547.781 145.948 547.557 145.725 547.281 145.725C547.005 145.725 546.781 145.948 546.781 146.225C546.781 146.501 547.005 146.725 547.281 146.725Z" fill="white" fill-opacity="0.1"/>
<path d="M705.812 599.348C706.088 599.348 706.312 599.124 706.312 598.848C706.312 598.572 706.088 598.348 705.812 598.348C705.536 598.348 705.312 598.572 705.312 598.848C705.312 599.124 705.536 599.348 705.812 599.348Z" fill="white" fill-opacity="0.1"/>
<path d="M1047.45 639.166C1047.73 639.166 1047.95 638.942 1047.95 638.666C1047.95 638.39 1047.73 638.166 1047.45 638.166C1047.17 638.166 1046.95 638.39 1046.95 638.666C1046.95 638.942 1047.17 639.166 1047.45 639.166Z" fill="white" fill-opacity="0.25"/>
<path d="M994.058 80.6406C994.334 80.6406 994.558 80.4168 994.558 80.1406C994.558 79.8645 994.334 79.6406 994.058 79.6406C993.782 79.6406 993.558 79.8645 993.558 80.1406C993.558 80.4168 993.782 80.6406 994.058 80.6406Z" fill="white" fill-opacity="0.15"/>
<path d="M641.536 672.506C641.812 672.506 642.036 672.282 642.036 672.006C642.036 671.73 641.812 671.506 641.536 671.506C641.26 671.506 641.036 671.73 641.036 672.006C641.036 672.282 641.26 672.506 641.536 672.506Z" fill="white" fill-opacity="0.25"/>
<path d="M75.3379 225.453C75.614 225.453 75.8379 225.229 75.8379 224.953C75.8379 224.677 75.614 224.453 75.3379 224.453C75.0617 224.453 74.8379 224.677 74.8379 224.953C74.8379 225.229 75.0617 225.453 75.3379 225.453Z" fill="white" fill-opacity="0.05"/>
<path d="M277.617 395.215C277.893 395.215 278.117 394.991 278.117 394.715C278.117 394.439 277.893 394.215 277.617 394.215C277.341 394.215 277.117 394.439 277.117 394.715C277.117 394.991 277.341 395.215 277.617 395.215Z" fill="white" fill-opacity="0.1"/>
<path d="M1061.52 696.867C1061.8 696.867 1062.02 696.643 1062.02 696.367C1062.02 696.091 1061.8 695.867 1061.52 695.867C1061.24 695.867 1061.02 696.091 1061.02 696.367C1061.02 696.643 1061.24 696.867 1061.52 696.867Z" fill="white" fill-opacity="0.25"/>
<path d="M1321.38 267.555C1321.66 267.555 1321.88 267.331 1321.88 267.055C1321.88 266.779 1321.66 266.555 1321.38 266.555C1321.1 266.555 1320.88 266.779 1320.88 267.055C1320.88 267.331 1321.1 267.555 1321.38 267.555Z" fill="white" fill-opacity="0.05"/>
<path d="M493.621 633.387C493.897 633.387 494.121 633.163 494.121 632.887C494.121 632.611 493.897 632.387 493.621 632.387C493.345 632.387 493.121 632.611 493.121 632.887C493.121 633.163 493.345 633.387 493.621 633.387Z" fill="white" fill-opacity="0.05"/>
<path d="M450.736 787.65C451.012 787.65 451.236 787.427 451.236 787.15C451.236 786.874 451.012 786.65 450.736 786.65C450.46 786.65 450.236 786.874 450.236 787.15C450.236 787.427 450.46 787.65 450.736 787.65Z" fill="white"/>
<path d="M373.121 531.639C373.397 531.639 373.621 531.415 373.621 531.139C373.621 530.863 373.397 530.639 373.121 530.639C372.845 530.639 372.621 530.863 372.621 531.139C372.621 531.415 372.845 531.639 373.121 531.639Z" fill="white" fill-opacity="0.05"/>
<path d="M152.854 634.635C153.13 634.635 153.354 634.411 153.354 634.135C153.354 633.859 153.13 633.635 152.854 633.635C152.577 633.635 152.354 633.859 152.354 634.135C152.354 634.411 152.577 634.635 152.854 634.635Z" fill="white" fill-opacity="0.05"/>
<path d="M706.162 596.289C706.438 596.289 706.662 596.065 706.662 595.789C706.662 595.513 706.438 595.289 706.162 595.289C705.886 595.289 705.662 595.513 705.662 595.789C705.662 596.065 705.886 596.289 706.162 596.289Z" fill="white" fill-opacity="0.05"/>
<path d="M941.124 690.451C941.4 690.451 941.624 690.227 941.624 689.951C941.624 689.675 941.4 689.451 941.124 689.451C940.848 689.451 940.624 689.675 940.624 689.951C940.624 690.227 940.848 690.451 941.124 690.451Z" fill="white"/>
<path d="M1355.82 788.354C1356.1 788.354 1356.32 788.13 1356.32 787.854C1356.32 787.577 1356.1 787.354 1355.82 787.354C1355.54 787.354 1355.32 787.577 1355.32 787.854C1355.32 788.13 1355.54 788.354 1355.82 788.354Z" fill="white" fill-opacity="0.1"/>
<path d="M841.056 225.834C841.332 225.834 841.556 225.61 841.556 225.334C841.556 225.058 841.332 224.834 841.056 224.834C840.78 224.834 840.556 225.058 840.556 225.334C840.556 225.61 840.78 225.834 841.056 225.834Z" fill="white" fill-opacity="0.25"/>
<path d="M337.181 689.971C337.457 689.971 337.681 689.747 337.681 689.471C337.681 689.195 337.457 688.971 337.181 688.971C336.905 688.971 336.681 689.195 336.681 689.471C336.681 689.747 336.905 689.971 337.181 689.971Z" fill="white"/>
<path d="M423.115 478.002C423.391 478.002 423.615 477.778 423.615 477.502C423.615 477.226 423.391 477.002 423.115 477.002C422.839 477.002 422.615 477.226 422.615 477.502C422.615 477.778 422.839 478.002 423.115 478.002Z" fill="white"/>
<path d="M1246.25 18.1895C1246.53 18.1895 1246.75 17.9656 1246.75 17.6895C1246.75 17.4133 1246.53 17.1895 1246.25 17.1895C1245.97 17.1895 1245.75 17.4133 1245.75 17.6895C1245.75 17.9656 1245.97 18.1895 1246.25 18.1895Z" fill="white" fill-opacity="0.1"/>
<path d="M-0.378906 709.916C-0.102764 709.916 0.121094 709.692 0.121094 709.416C0.121094 709.14 -0.102764 708.916 -0.378906 708.916C-0.655049 708.916 -0.878906 709.14 -0.878906 709.416C-0.878906 709.692 -0.655049 709.916 -0.378906 709.916Z" fill="white"/>
<path d="M970.801 799.734C971.077 799.734 971.301 799.511 971.301 799.234C971.301 798.958 971.077 798.734 970.801 798.734C970.525 798.734 970.301 798.958 970.301 799.234C970.301 799.511 970.525 799.734 970.801 799.734Z" fill="white" fill-opacity="0.15"/>
<path d="M521.08 326.297C521.356 326.297 521.58 326.073 521.58 325.797C521.58 325.521 521.356 325.297 521.08 325.297C520.804 325.297 520.58 325.521 520.58 325.797C520.58 326.073 520.804 326.297 521.08 326.297Z" fill="white" fill-opacity="0.1"/>
<path d="M948.182 674.23C948.458 674.23 948.682 674.007 948.682 673.73C948.682 673.454 948.458 673.23 948.182 673.23C947.906 673.23 947.682 673.454 947.682 673.73C947.682 674.007 947.906 674.23 948.182 674.23Z" fill="white" fill-opacity="0.05"/>
<path d="M840.969 87.5508C841.245 87.5508 841.469 87.3269 841.469 87.0508C841.469 86.7746 841.245 86.5508 840.969 86.5508C840.693 86.5508 840.469 86.7746 840.469 87.0508C840.469 87.3269 840.693 87.5508 840.969 87.5508Z" fill="white" fill-opacity="0.25"/>
<path d="M910.189 8.56445C910.465 8.56445 910.689 8.3406 910.689 8.06445C910.689 7.78831 910.465 7.56445 910.189 7.56445C909.913 7.56445 909.689 7.78831 909.689 8.06445C909.689 8.3406 909.913 8.56445 910.189 8.56445Z" fill="white" fill-opacity="0.25"/>
<path d="M536.585 657.031C536.861 657.031 537.085 656.807 537.085 656.531C537.085 656.255 536.861 656.031 536.585 656.031C536.309 656.031 536.085 656.255 536.085 656.531C536.085 656.807 536.309 657.031 536.585 657.031Z" fill="white" fill-opacity="0.05"/>
<path d="M1230.31 385.816C1230.59 385.816 1230.81 385.593 1230.81 385.316C1230.81 385.04 1230.59 384.816 1230.31 384.816C1230.03 384.816 1229.81 385.04 1229.81 385.316C1229.81 385.593 1230.03 385.816 1230.31 385.816Z" fill="white" fill-opacity="0.25"/>
<path d="M64.3115 25.0059C64.5877 25.0059 64.8115 24.782 64.8115 24.5059C64.8115 24.2297 64.5877 24.0059 64.3115 24.0059C64.0354 24.0059 63.8115 24.2297 63.8115 24.5059C63.8115 24.782 64.0354 25.0059 64.3115 25.0059Z" fill="white" fill-opacity="0.25"/>
<path d="M125.811 489.496C126.087 489.496 126.311 489.272 126.311 488.996C126.311 488.72 126.087 488.496 125.811 488.496C125.534 488.496 125.311 488.72 125.311 488.996C125.311 489.272 125.534 489.496 125.811 489.496Z" fill="white" fill-opacity="0.05"/>
<path d="M1111.2 215.752C1111.48 215.752 1111.7 215.528 1111.7 215.252C1111.7 214.976 1111.48 214.752 1111.2 214.752C1110.92 214.752 1110.7 214.976 1110.7 215.252C1110.7 215.528 1110.92 215.752 1111.2 215.752Z" fill="white" fill-opacity="0.25"/>
<path d="M562.109 135.947C562.385 135.947 562.609 135.723 562.609 135.447C562.609 135.171 562.385 134.947 562.109 134.947C561.833 134.947 561.609 135.171 561.609 135.447C561.609 135.723 561.833 135.947 562.109 135.947Z" fill="white" fill-opacity="0.15"/>
<path d="M1144.11 96.8438C1144.39 96.8438 1144.61 96.6199 1144.61 96.3438C1144.61 96.0676 1144.39 95.8438 1144.11 95.8438C1143.83 95.8438 1143.61 96.0676 1143.61 96.3438C1143.61 96.6199 1143.83 96.8438 1144.11 96.8438Z" fill="white" fill-opacity="0.05"/>
<path d="M1093.98 631.598C1094.26 631.598 1094.48 631.374 1094.48 631.098C1094.48 630.822 1094.26 630.598 1093.98 630.598C1093.7 630.598 1093.48 630.822 1093.48 631.098C1093.48 631.374 1093.7 631.598 1093.98 631.598Z" fill="white" fill-opacity="0.15"/>
<path d="M1149.49 66.1777C1149.77 66.1777 1149.99 65.9539 1149.99 65.6777C1149.99 65.4016 1149.77 65.1777 1149.49 65.1777C1149.21 65.1777 1148.99 65.4016 1148.99 65.6777C1148.99 65.9539 1149.21 66.1777 1149.49 66.1777Z" fill="white"/>
<path d="M488.563 207.543C488.839 207.543 489.063 207.319 489.063 207.043C489.063 206.767 488.839 206.543 488.563 206.543C488.287 206.543 488.063 206.767 488.063 207.043C488.063 207.319 488.287 207.543 488.563 207.543Z" fill="white" fill-opacity="0.15"/>
<path d="M106.465 757.914C106.741 757.914 106.965 757.69 106.965 757.414C106.965 757.138 106.741 756.914 106.465 756.914C106.189 756.914 105.965 757.138 105.965 757.414C105.965 757.69 106.189 757.914 106.465 757.914Z" fill="white" fill-opacity="0.05"/>
<path d="M785.354 647.863C785.63 647.863 785.854 647.639 785.854 647.363C785.854 647.087 785.63 646.863 785.354 646.863C785.078 646.863 784.854 647.087 784.854 647.363C784.854 647.639 785.078 647.863 785.354 647.863Z" fill="white" fill-opacity="0.25"/>
<path d="M660.981 514.781C661.257 514.781 661.481 514.557 661.481 514.281C661.481 514.005 661.257 513.781 660.981 513.781C660.705 513.781 660.481 514.005 660.481 514.281C660.481 514.557 660.705 514.781 660.981 514.781Z" fill="white" fill-opacity="0.25"/>
<path d="M490.314 43.4824C490.59 43.4824 490.814 43.2586 490.814 42.9824C490.814 42.7063 490.59 42.4824 490.314 42.4824C490.038 42.4824 489.814 42.7063 489.814 42.9824C489.814 43.2586 490.038 43.4824 490.314 43.4824Z" fill="white" fill-opacity="0.25"/>
<path d="M996.222 387.674C996.498 387.674 996.722 387.45 996.722 387.174C996.722 386.898 996.498 386.674 996.222 386.674C995.946 386.674 995.722 386.898 995.722 387.174C995.722 387.45 995.946 387.674 996.222 387.674Z" fill="white"/>
<path d="M1356.8 714.328C1357.08 714.328 1357.3 714.104 1357.3 713.828C1357.3 713.552 1357.08 713.328 1356.8 713.328C1356.52 713.328 1356.3 713.552 1356.3 713.828C1356.3 714.104 1356.52 714.328 1356.8 714.328Z" fill="white" fill-opacity="0.25"/>
<path d="M72.2842 731.963C72.5603 731.963 72.7842 731.739 72.7842 731.463C72.7842 731.187 72.5603 730.963 72.2842 730.963C72.008 730.963 71.7842 731.187 71.7842 731.463C71.7842 731.739 72.008 731.963 72.2842 731.963Z" fill="white" fill-opacity="0.15"/>
<path d="M956.46 77.2051C956.736 77.2051 956.96 76.9812 956.96 76.7051C956.96 76.4289 956.736 76.2051 956.46 76.2051C956.184 76.2051 955.96 76.4289 955.96 76.7051C955.96 76.9812 956.184 77.2051 956.46 77.2051Z" fill="white" fill-opacity="0.05"/>
<path d="M121.279 538.057C121.555 538.057 121.779 537.833 121.779 537.557C121.779 537.28 121.555 537.057 121.279 537.057C121.003 537.057 120.779 537.28 120.779 537.557C120.779 537.833 121.003 538.057 121.279 538.057Z" fill="white" fill-opacity="0.25"/>
<path d="M1318.5 584.803C1318.78 584.803 1319 584.579 1319 584.303C1319 584.027 1318.78 583.803 1318.5 583.803C1318.22 583.803 1318 584.027 1318 584.303C1318 584.579 1318.22 584.803 1318.5 584.803Z" fill="white" fill-opacity="0.25"/>
<path d="M1245.58 94.1055C1245.86 94.1055 1246.08 93.8816 1246.08 93.6055C1246.08 93.3293 1245.86 93.1055 1245.58 93.1055C1245.3 93.1055 1245.08 93.3293 1245.08 93.6055C1245.08 93.8816 1245.3 94.1055 1245.58 94.1055Z" fill="white" fill-opacity="0.1"/>
<path d="M1103.14 476.613C1103.42 476.613 1103.64 476.389 1103.64 476.113C1103.64 475.837 1103.42 475.613 1103.14 475.613C1102.86 475.613 1102.64 475.837 1102.64 476.113C1102.64 476.389 1102.86 476.613 1103.14 476.613Z" fill="white" fill-opacity="0.05"/>
<path d="M443.414 275.213C443.69 275.213 443.914 274.989 443.914 274.713C443.914 274.437 443.69 274.213 443.414 274.213C443.138 274.213 442.914 274.437 442.914 274.713C442.914 274.989 443.138 275.213 443.414 275.213Z" fill="white" fill-opacity="0.1"/>
<path d="M702.406 551.785C702.682 551.785 702.906 551.561 702.906 551.285C702.906 551.009 702.682 550.785 702.406 550.785C702.13 550.785 701.906 551.009 701.906 551.285C701.906 551.561 702.13 551.785 702.406 551.785Z" fill="white" fill-opacity="0.1"/>
<path d="M878.227 393.865C878.503 393.865 878.727 393.641 878.727 393.365C878.727 393.089 878.503 392.865 878.227 392.865C877.951 392.865 877.727 393.089 877.727 393.365C877.727 393.641 877.951 393.865 878.227 393.865Z" fill="white" fill-opacity="0.1"/>
<path d="M1071.14 260.141C1071.42 260.141 1071.64 259.917 1071.64 259.641C1071.64 259.364 1071.42 259.141 1071.14 259.141C1070.86 259.141 1070.64 259.364 1070.64 259.641C1070.64 259.917 1070.86 260.141 1071.14 260.141Z" fill="white" fill-opacity="0.25"/>
<path d="M280.557 626.912C280.833 626.912 281.057 626.688 281.057 626.412C281.057 626.136 280.833 625.912 280.557 625.912C280.281 625.912 280.057 626.136 280.057 626.412C280.057 626.688 280.281 626.912 280.557 626.912Z" fill="white" fill-opacity="0.05"/>
<path d="M843.446 627.957C843.722 627.957 843.946 627.733 843.946 627.457C843.946 627.181 843.722 626.957 843.446 626.957C843.17 626.957 842.946 627.181 842.946 627.457C842.946 627.733 843.17 627.957 843.446 627.957Z" fill="white"/>
<path d="M116.372 162.662C116.648 162.662 116.872 162.438 116.872 162.162C116.872 161.886 116.648 161.662 116.372 161.662C116.096 161.662 115.872 161.886 115.872 162.162C115.872 162.438 116.096 162.662 116.372 162.662Z" fill="white" fill-opacity="0.05"/>
<path d="M872.636 627.16C872.912 627.16 873.136 626.936 873.136 626.66C873.136 626.384 872.912 626.16 872.636 626.16C872.36 626.16 872.136 626.384 872.136 626.66C872.136 626.936 872.36 627.16 872.636 627.16Z" fill="white" fill-opacity="0.25"/>
<path d="M241.916 252.916C242.192 252.916 242.416 252.692 242.416 252.416C242.416 252.14 242.192 251.916 241.916 251.916C241.64 251.916 241.416 252.14 241.416 252.416C241.416 252.692 241.64 252.916 241.916 252.916Z" fill="white" fill-opacity="0.15"/>
<path d="M1375.65 599.654C1375.93 599.654 1376.15 599.43 1376.15 599.154C1376.15 598.878 1375.93 598.654 1375.65 598.654C1375.37 598.654 1375.15 598.878 1375.15 599.154C1375.15 599.43 1375.37 599.654 1375.65 599.654Z" fill="white" fill-opacity="0.25"/>
<path d="M148.077 104.613C148.353 104.613 148.577 104.389 148.577 104.113C148.577 103.837 148.353 103.613 148.077 103.613C147.801 103.613 147.577 103.837 147.577 104.113C147.577 104.389 147.801 104.613 148.077 104.613Z" fill="white" fill-opacity="0.15"/>
<path d="M1322.25 556.229C1322.53 556.229 1322.75 556.005 1322.75 555.729C1322.75 555.452 1322.53 555.229 1322.25 555.229C1321.97 555.229 1321.75 555.452 1321.75 555.729C1321.75 556.005 1321.97 556.229 1322.25 556.229Z" fill="white" fill-opacity="0.1"/>
<path d="M1122.97 82.002C1123.25 82.002 1123.47 81.7781 1123.47 81.502C1123.47 81.2258 1123.25 81.002 1122.97 81.002C1122.69 81.002 1122.47 81.2258 1122.47 81.502C1122.47 81.7781 1122.69 82.002 1122.97 82.002Z" fill="white"/>
<path d="M275.474 512.186C275.75 512.186 275.974 511.962 275.974 511.686C275.974 511.409 275.75 511.186 275.474 511.186C275.198 511.186 274.974 511.409 274.974 511.686C274.974 511.962 275.198 512.186 275.474 512.186Z" fill="white"/>
<path d="M626.043 558.875C626.319 558.875 626.543 558.651 626.543 558.375C626.543 558.099 626.319 557.875 626.043 557.875C625.767 557.875 625.543 558.099 625.543 558.375C625.543 558.651 625.767 558.875 626.043 558.875Z" fill="white" fill-opacity="0.05"/>
<path d="M872.016 509.529C872.292 509.529 872.516 509.305 872.516 509.029C872.516 508.753 872.292 508.529 872.016 508.529C871.74 508.529 871.516 508.753 871.516 509.029C871.516 509.305 871.74 509.529 872.016 509.529Z" fill="white" fill-opacity="0.25"/>
<path d="M886.46 441.57C886.736 441.57 886.96 441.346 886.96 441.07C886.96 440.794 886.736 440.57 886.46 440.57C886.184 440.57 885.96 440.794 885.96 441.07C885.96 441.346 886.184 441.57 886.46 441.57Z" fill="white"/>
<path d="M828.829 437.404C829.105 437.404 829.329 437.18 829.329 436.904C829.329 436.628 829.105 436.404 828.829 436.404C828.553 436.404 828.329 436.628 828.329 436.904C828.329 437.18 828.553 437.404 828.829 437.404Z" fill="white" fill-opacity="0.15"/>
<path d="M1155.49 496.209C1155.77 496.209 1155.99 495.985 1155.99 495.709C1155.99 495.433 1155.77 495.209 1155.49 495.209C1155.21 495.209 1154.99 495.433 1154.99 495.709C1154.99 495.985 1155.21 496.209 1155.49 496.209Z" fill="white" fill-opacity="0.1"/>
<path d="M788.726 327.947C789.002 327.947 789.226 327.723 789.226 327.447C789.226 327.171 789.002 326.947 788.726 326.947C788.45 326.947 788.226 327.171 788.226 327.447C788.226 327.723 788.45 327.947 788.726 327.947Z" fill="white" fill-opacity="0.05"/>
<path d="M903.369 719.418C903.645 719.418 903.869 719.194 903.869 718.918C903.869 718.642 903.645 718.418 903.369 718.418C903.093 718.418 902.869 718.642 902.869 718.918C902.869 719.194 903.093 719.418 903.369 719.418Z" fill="white" fill-opacity="0.05"/>
<path d="M1160.54 342.271C1160.82 342.271 1161.04 342.048 1161.04 341.771C1161.04 341.495 1160.82 341.271 1160.54 341.271C1160.26 341.271 1160.04 341.495 1160.04 341.771C1160.04 342.048 1160.26 342.271 1160.54 342.271Z" fill="white"/>
<path d="M88.2197 194.344C88.4959 194.344 88.7197 194.12 88.7197 193.844C88.7197 193.568 88.4959 193.344 88.2197 193.344C87.9436 193.344 87.7197 193.568 87.7197 193.844C87.7197 194.12 87.9436 194.344 88.2197 194.344Z" fill="white" fill-opacity="0.25"/>
<path d="M518.76 297.361C519.036 297.361 519.26 297.137 519.26 296.861C519.26 296.585 519.036 296.361 518.76 296.361C518.484 296.361 518.26 296.585 518.26 296.861C518.26 297.137 518.484 297.361 518.76 297.361Z" fill="white" fill-opacity="0.05"/>
<path d="M750.344 509.645C750.62 509.645 750.844 509.421 750.844 509.145C750.844 508.868 750.62 508.645 750.344 508.645C750.068 508.645 749.844 508.868 749.844 509.145C749.844 509.421 750.068 509.645 750.344 509.645Z" fill="white" fill-opacity="0.15"/>
<path d="M1025.08 455.963C1025.36 455.963 1025.58 455.739 1025.58 455.463C1025.58 455.187 1025.36 454.963 1025.08 454.963C1024.8 454.963 1024.58 455.187 1024.58 455.463C1024.58 455.739 1024.8 455.963 1025.08 455.963Z" fill="white" fill-opacity="0.1"/>
<path d="M855.426 149.252C855.702 149.252 855.926 149.028 855.926 148.752C855.926 148.476 855.702 148.252 855.426 148.252C855.15 148.252 854.926 148.476 854.926 148.752C854.926 149.028 855.15 149.252 855.426 149.252Z" fill="white" fill-opacity="0.25"/>
<path d="M893.872 351.309C894.148 351.309 894.372 351.085 894.372 350.809C894.372 350.532 894.148 350.309 893.872 350.309C893.596 350.309 893.372 350.532 893.372 350.809C893.372 351.085 893.596 351.309 893.872 351.309Z" fill="white" fill-opacity="0.25"/>
<path d="M124.217 314.654C124.493 314.654 124.717 314.43 124.717 314.154C124.717 313.878 124.493 313.654 124.217 313.654C123.941 313.654 123.717 313.878 123.717 314.154C123.717 314.43 123.941 314.654 124.217 314.654Z" fill="white" fill-opacity="0.25"/>
<path d="M984.662 114.488C984.938 114.488 985.162 114.264 985.162 113.988C985.162 113.712 984.938 113.488 984.662 113.488C984.386 113.488 984.162 113.712 984.162 113.988C984.162 114.264 984.386 114.488 984.662 114.488Z" fill="white" fill-opacity="0.05"/>
<path d="M1053.85 727.525C1054.13 727.525 1054.35 727.302 1054.35 727.025C1054.35 726.749 1054.13 726.525 1053.85 726.525C1053.57 726.525 1053.35 726.749 1053.35 727.025C1053.35 727.302 1053.57 727.525 1053.85 727.525Z" fill="white" fill-opacity="0.15"/>
<path d="M1281.53 620.383C1281.81 620.383 1282.03 620.159 1282.03 619.883C1282.03 619.607 1281.81 619.383 1281.53 619.383C1281.25 619.383 1281.03 619.607 1281.03 619.883C1281.03 620.159 1281.25 620.383 1281.53 620.383Z" fill="white" fill-opacity="0.25"/>
<path d="M155.524 196.328C155.801 196.328 156.024 196.104 156.024 195.828C156.024 195.552 155.801 195.328 155.524 195.328C155.248 195.328 155.024 195.552 155.024 195.828C155.024 196.104 155.248 196.328 155.524 196.328Z" fill="white" fill-opacity="0.05"/>
<path d="M534.474 603.125C534.75 603.125 534.974 602.901 534.974 602.625C534.974 602.349 534.75 602.125 534.474 602.125C534.198 602.125 533.974 602.349 533.974 602.625C533.974 602.901 534.198 603.125 534.474 603.125Z" fill="white" fill-opacity="0.15"/>
<path d="M1118.23 210.438C1118.51 210.438 1118.73 210.214 1118.73 209.938C1118.73 209.661 1118.51 209.438 1118.23 209.438C1117.95 209.438 1117.73 209.661 1117.73 209.938C1117.73 210.214 1117.95 210.438 1118.23 210.438Z" fill="white" fill-opacity="0.15"/>
<path d="M80.4951 536.984C80.7713 536.984 80.9951 536.761 80.9951 536.484C80.9951 536.208 80.7713 535.984 80.4951 535.984C80.219 535.984 79.9951 536.208 79.9951 536.484C79.9951 536.761 80.219 536.984 80.4951 536.984Z" fill="white" fill-opacity="0.25"/>
<path d="M1034.47 498.672C1034.75 498.672 1034.97 498.448 1034.97 498.172C1034.97 497.896 1034.75 497.672 1034.47 497.672C1034.19 497.672 1033.97 497.896 1033.97 498.172C1033.97 498.448 1034.19 498.672 1034.47 498.672Z" fill="white" fill-opacity="0.15"/>
<path d="M1316.04 290.203C1316.32 290.203 1316.54 289.979 1316.54 289.703C1316.54 289.427 1316.32 289.203 1316.04 289.203C1315.76 289.203 1315.54 289.427 1315.54 289.703C1315.54 289.979 1315.76 290.203 1316.04 290.203Z" fill="white" fill-opacity="0.1"/>
<path d="M24.9795 404.832C25.2556 404.832 25.4795 404.608 25.4795 404.332C25.4795 404.056 25.2556 403.832 24.9795 403.832C24.7033 403.832 24.4795 404.056 24.4795 404.332C24.4795 404.608 24.7033 404.832 24.9795 404.832Z" fill="white" fill-opacity="0.05"/>
<path d="M1115.54 587.211C1115.82 587.211 1116.04 586.987 1116.04 586.711C1116.04 586.435 1115.82 586.211 1115.54 586.211C1115.26 586.211 1115.04 586.435 1115.04 586.711C1115.04 586.987 1115.26 587.211 1115.54 587.211Z" fill="white" fill-opacity="0.05"/>
<path d="M1079.32 351.559C1079.6 351.559 1079.82 351.335 1079.82 351.059C1079.82 350.782 1079.6 350.559 1079.32 350.559C1079.04 350.559 1078.82 350.782 1078.82 351.059C1078.82 351.335 1079.04 351.559 1079.32 351.559Z" fill="white" fill-opacity="0.1"/>
<path d="M762.045 409.342C762.321 409.342 762.545 409.118 762.545 408.842C762.545 408.566 762.321 408.342 762.045 408.342C761.769 408.342 761.545 408.566 761.545 408.842C761.545 409.118 761.769 409.342 762.045 409.342Z" fill="white" fill-opacity="0.1"/>
<path d="M79.1152 33.6914C79.3914 33.6914 79.6152 33.4675 79.6152 33.1914C79.6152 32.9153 79.3914 32.6914 79.1152 32.6914C78.8391 32.6914 78.6152 32.9153 78.6152 33.1914C78.6152 33.4675 78.8391 33.6914 79.1152 33.6914Z" fill="white" fill-opacity="0.05"/>
<path d="M771.102 673.906C771.378 673.906 771.602 673.682 771.602 673.406C771.602 673.13 771.378 672.906 771.102 672.906C770.826 672.906 770.602 673.13 770.602 673.406C770.602 673.682 770.826 673.906 771.102 673.906Z" fill="white" fill-opacity="0.15"/>
<path d="M379.562 293.76C379.838 293.76 380.062 293.536 380.062 293.26C380.062 292.984 379.838 292.76 379.562 292.76C379.286 292.76 379.062 292.984 379.062 293.26C379.062 293.536 379.286 293.76 379.562 293.76Z" fill="white" fill-opacity="0.05"/>
<path d="M553.704 522.354C553.98 522.354 554.204 522.13 554.204 521.854C554.204 521.577 553.98 521.354 553.704 521.354C553.428 521.354 553.204 521.577 553.204 521.854C553.204 522.13 553.428 522.354 553.704 522.354Z" fill="white"/>
<path d="M1204.38 230.283C1204.66 230.283 1204.88 230.059 1204.88 229.783C1204.88 229.507 1204.66 229.283 1204.38 229.283C1204.1 229.283 1203.88 229.507 1203.88 229.783C1203.88 230.059 1204.1 230.283 1204.38 230.283Z" fill="white" fill-opacity="0.25"/>
<path d="M690.591 240.699C690.867 240.699 691.091 240.475 691.091 240.199C691.091 239.923 690.867 239.699 690.591 239.699C690.315 239.699 690.091 239.923 690.091 240.199C690.091 240.475 690.315 240.699 690.591 240.699Z" fill="white" fill-opacity="0.15"/>
<path d="M1178.83 245.043C1179.11 245.043 1179.33 244.819 1179.33 244.543C1179.33 244.267 1179.11 244.043 1178.83 244.043C1178.55 244.043 1178.33 244.267 1178.33 244.543C1178.33 244.819 1178.55 245.043 1178.83 245.043Z" fill="white" fill-opacity="0.25"/>
<path d="M884.332 53.0273C884.608 53.0273 884.832 52.8035 884.832 52.5273C884.832 52.2512 884.608 52.0273 884.332 52.0273C884.056 52.0273 883.832 52.2512 883.832 52.5273C883.832 52.8035 884.056 53.0273 884.332 53.0273Z" fill="white" fill-opacity="0.25"/>
<path d="M598.806 614.607C599.082 614.607 599.306 614.384 599.306 614.107C599.306 613.831 599.082 613.607 598.806 613.607C598.53 613.607 598.306 613.831 598.306 614.107C598.306 614.384 598.53 614.607 598.806 614.607Z" fill="white" fill-opacity="0.25"/>
<path d="M127.157 644.967C127.433 644.967 127.657 644.743 127.657 644.467C127.657 644.191 127.433 643.967 127.157 643.967C126.881 643.967 126.657 644.191 126.657 644.467C126.657 644.743 126.881 644.967 127.157 644.967Z" fill="white" fill-opacity="0.05"/>
<path d="M862.47 242.445C862.746 242.445 862.97 242.221 862.97 241.945C862.97 241.669 862.746 241.445 862.47 241.445C862.194 241.445 861.97 241.669 861.97 241.945C861.97 242.221 862.194 242.445 862.47 242.445Z" fill="white" fill-opacity="0.15"/>
<path d="M868.498 478.066C868.774 478.066 868.998 477.843 868.998 477.566C868.998 477.29 868.774 477.066 868.498 477.066C868.222 477.066 867.998 477.29 867.998 477.566C867.998 477.843 868.222 478.066 868.498 478.066Z" fill="white" fill-opacity="0.15"/>
<path d="M400.465 679.012C400.741 679.012 400.965 678.788 400.965 678.512C400.965 678.236 400.741 678.012 400.465 678.012C400.189 678.012 399.965 678.236 399.965 678.512C399.965 678.788 400.189 679.012 400.465 679.012Z" fill="white" fill-opacity="0.1"/>
<path d="M1086.12 268.465C1086.4 268.465 1086.62 268.241 1086.62 267.965C1086.62 267.689 1086.4 267.465 1086.12 267.465C1085.84 267.465 1085.62 267.689 1085.62 267.965C1085.62 268.241 1085.84 268.465 1086.12 268.465Z" fill="white" fill-opacity="0.05"/>
<path d="M1081.39 551C1081.67 551 1081.89 550.776 1081.89 550.5C1081.89 550.224 1081.67 550 1081.39 550C1081.11 550 1080.89 550.224 1080.89 550.5C1080.89 550.776 1081.11 551 1081.39 551Z" fill="white" fill-opacity="0.25"/>
<path d="M493.828 51.9707C494.104 51.9707 494.328 51.7468 494.328 51.4707C494.328 51.1946 494.104 50.9707 493.828 50.9707C493.552 50.9707 493.328 51.1946 493.328 51.4707C493.328 51.7468 493.552 51.9707 493.828 51.9707Z" fill="white" fill-opacity="0.05"/>
<path d="M1059.11 769.543C1059.39 769.543 1059.61 769.319 1059.61 769.043C1059.61 768.767 1059.39 768.543 1059.11 768.543C1058.83 768.543 1058.61 768.767 1058.61 769.043C1058.61 769.319 1058.83 769.543 1059.11 769.543Z" fill="white"/>
<path d="M1376.29 534.354C1376.57 534.354 1376.79 534.13 1376.79 533.854C1376.79 533.577 1376.57 533.354 1376.29 533.354C1376.01 533.354 1375.79 533.577 1375.79 533.854C1375.79 534.13 1376.01 534.354 1376.29 534.354Z" fill="white" fill-opacity="0.25"/>
<path d="M845.248 365.697C845.524 365.697 845.748 365.473 845.748 365.197C845.748 364.921 845.524 364.697 845.248 364.697C844.972 364.697 844.748 364.921 844.748 365.197C844.748 365.473 844.972 365.697 845.248 365.697Z" fill="white" fill-opacity="0.05"/>
<path d="M404.506 27.5391C404.782 27.5391 405.006 27.3152 405.006 27.0391C405.006 26.7629 404.782 26.5391 404.506 26.5391C404.23 26.5391 404.006 26.7629 404.006 27.0391C404.006 27.3152 404.23 27.5391 404.506 27.5391Z" fill="white" fill-opacity="0.15"/>
<path d="M705.293 658.441C705.569 658.441 705.793 658.218 705.793 657.941C705.793 657.665 705.569 657.441 705.293 657.441C705.017 657.441 704.793 657.665 704.793 657.941C704.793 658.218 705.017 658.441 705.293 658.441Z" fill="white" fill-opacity="0.25"/>
<path d="M1386.1 381.715C1386.38 381.715 1386.6 381.491 1386.6 381.215C1386.6 380.939 1386.38 380.715 1386.1 380.715C1385.82 380.715 1385.6 380.939 1385.6 381.215C1385.6 381.491 1385.82 381.715 1386.1 381.715Z" fill="white" fill-opacity="0.1"/>
<path d="M1057.74 383.953C1058.02 383.953 1058.24 383.729 1058.24 383.453C1058.24 383.177 1058.02 382.953 1057.74 382.953C1057.46 382.953 1057.24 383.177 1057.24 383.453C1057.24 383.729 1057.46 383.953 1057.74 383.953Z" fill="white" fill-opacity="0.05"/>
<path d="M184.079 721.039C184.355 721.039 184.579 720.815 184.579 720.539C184.579 720.263 184.355 720.039 184.079 720.039C183.803 720.039 183.579 720.263 183.579 720.539C183.579 720.815 183.803 721.039 184.079 721.039Z" fill="white" fill-opacity="0.05"/>
<path d="M1340.45 680.086C1340.73 680.086 1340.95 679.862 1340.95 679.586C1340.95 679.31 1340.73 679.086 1340.45 679.086C1340.17 679.086 1339.95 679.31 1339.95 679.586C1339.95 679.862 1340.17 680.086 1340.45 680.086Z" fill="white" fill-opacity="0.05"/>
<path d="M838.967 710.566C839.243 710.566 839.467 710.343 839.467 710.066C839.467 709.79 839.243 709.566 838.967 709.566C838.691 709.566 838.467 709.79 838.467 710.066C838.467 710.343 838.691 710.566 838.967 710.566Z" fill="white" fill-opacity="0.25"/>
<path d="M419.744 411.357C420.02 411.357 420.244 411.134 420.244 410.857C420.244 410.581 420.02 410.357 419.744 410.357C419.468 410.357 419.244 410.581 419.244 410.857C419.244 411.134 419.468 411.357 419.744 411.357Z" fill="white" fill-opacity="0.1"/>
<path d="M759.797 729.045C760.073 729.045 760.297 728.821 760.297 728.545C760.297 728.269 760.073 728.045 759.797 728.045C759.521 728.045 759.297 728.269 759.297 728.545C759.297 728.821 759.521 729.045 759.797 729.045Z" fill="white" fill-opacity="0.15"/>
<path d="M782.479 287.312C782.755 287.312 782.979 287.089 782.979 286.812C782.979 286.536 782.755 286.312 782.479 286.312C782.203 286.312 781.979 286.536 781.979 286.812C781.979 287.089 782.203 287.312 782.479 287.312Z" fill="white" fill-opacity="0.25"/>
<path d="M96.5088 669.5C96.7849 669.5 97.0088 669.276 97.0088 669C97.0088 668.724 96.7849 668.5 96.5088 668.5C96.2326 668.5 96.0088 668.724 96.0088 669C96.0088 669.276 96.2326 669.5 96.5088 669.5Z" fill="white" fill-opacity="0.25"/>
<path d="M1074.76 146.461C1075.04 146.461 1075.26 146.237 1075.26 145.961C1075.26 145.685 1075.04 145.461 1074.76 145.461C1074.48 145.461 1074.26 145.685 1074.26 145.961C1074.26 146.237 1074.48 146.461 1074.76 146.461Z" fill="white" fill-opacity="0.1"/>
<path d="M1336.87 794.977C1337.15 794.977 1337.37 794.753 1337.37 794.477C1337.37 794.2 1337.15 793.977 1336.87 793.977C1336.59 793.977 1336.37 794.2 1336.37 794.477C1336.37 794.753 1336.59 794.977 1336.87 794.977Z" fill="white" fill-opacity="0.1"/>
<path d="M305.805 799.443C306.081 799.443 306.305 799.22 306.305 798.943C306.305 798.667 306.081 798.443 305.805 798.443C305.529 798.443 305.305 798.667 305.305 798.943C305.305 799.22 305.529 799.443 305.805 799.443Z" fill="white" fill-opacity="0.25"/>
<path d="M523.361 400.533C523.637 400.533 523.861 400.309 523.861 400.033C523.861 399.757 523.637 399.533 523.361 399.533C523.085 399.533 522.861 399.757 522.861 400.033C522.861 400.309 523.085 400.533 523.361 400.533Z" fill="white" fill-opacity="0.25"/>
<path d="M882.469 633.018C882.745 633.018 882.969 632.794 882.969 632.518C882.969 632.241 882.745 632.018 882.469 632.018C882.193 632.018 881.969 632.241 881.969 632.518C881.969 632.794 882.193 633.018 882.469 633.018Z" fill="white" fill-opacity="0.1"/>
<path d="M183.061 36.6035C183.337 36.6035 183.561 36.3797 183.561 36.1035C183.561 35.8274 183.337 35.6035 183.061 35.6035C182.784 35.6035 182.561 35.8274 182.561 36.1035C182.561 36.3797 182.784 36.6035 183.061 36.6035Z" fill="white" fill-opacity="0.05"/>
<path d="M784.437 331.055C784.713 331.055 784.937 330.831 784.937 330.555C784.937 330.279 784.713 330.055 784.437 330.055C784.161 330.055 783.937 330.279 783.937 330.555C783.937 330.831 784.161 331.055 784.437 331.055Z" fill="white" fill-opacity="0.25"/>
<path d="M278.716 82.3594C278.992 82.3594 279.216 82.1355 279.216 81.8594C279.216 81.5832 278.992 81.3594 278.716 81.3594C278.44 81.3594 278.216 81.5832 278.216 81.8594C278.216 82.1355 278.44 82.3594 278.716 82.3594Z" fill="white" fill-opacity="0.1"/>
<path d="M1118.45 399.98C1118.73 399.98 1118.95 399.757 1118.95 399.48C1118.95 399.204 1118.73 398.98 1118.45 398.98C1118.17 398.98 1117.95 399.204 1117.95 399.48C1117.95 399.757 1118.17 399.98 1118.45 399.98Z" fill="white"/>
<path d="M1387.5 341.793C1387.78 341.793 1388 341.569 1388 341.293C1388 341.017 1387.78 340.793 1387.5 340.793C1387.22 340.793 1387 341.017 1387 341.293C1387 341.569 1387.22 341.793 1387.5 341.793Z" fill="white" fill-opacity="0.1"/>
<path d="M1345.7 515.07C1345.98 515.07 1346.2 514.846 1346.2 514.57C1346.2 514.294 1345.98 514.07 1345.7 514.07C1345.42 514.07 1345.2 514.294 1345.2 514.57C1345.2 514.846 1345.42 515.07 1345.7 515.07Z" fill="white"/>
<path d="M109.673 115.6C109.949 115.6 110.173 115.376 110.173 115.1C110.173 114.823 109.949 114.6 109.673 114.6C109.397 114.6 109.173 114.823 109.173 115.1C109.173 115.376 109.397 115.6 109.673 115.6Z" fill="white" fill-opacity="0.05"/>
<path d="M237.156 481.42C237.432 481.42 237.656 481.196 237.656 480.92C237.656 480.644 237.432 480.42 237.156 480.42C236.88 480.42 236.656 480.644 236.656 480.92C236.656 481.196 236.88 481.42 237.156 481.42Z" fill="white" fill-opacity="0.05"/>
<path d="M742.795 477.031C743.071 477.031 743.295 476.807 743.295 476.531C743.295 476.255 743.071 476.031 742.795 476.031C742.519 476.031 742.295 476.255 742.295 476.531C742.295 476.807 742.519 477.031 742.795 477.031Z" fill="white" fill-opacity="0.25"/>
<path d="M223.42 27.793C223.696 27.793 223.92 27.5691 223.92 27.293C223.92 27.0168 223.696 26.793 223.42 26.793C223.144 26.793 222.92 27.0168 222.92 27.293C222.92 27.5691 223.144 27.793 223.42 27.793Z" fill="white" fill-opacity="0.1"/>
<path d="M59.4404 312.785C59.7166 312.785 59.9404 312.561 59.9404 312.285C59.9404 312.009 59.7166 311.785 59.4404 311.785C59.1643 311.785 58.9404 312.009 58.9404 312.285C58.9404 312.561 59.1643 312.785 59.4404 312.785Z" fill="white" fill-opacity="0.15"/>
<path d="M1200.95 124.734C1201.23 124.734 1201.45 124.511 1201.45 124.234C1201.45 123.958 1201.23 123.734 1200.95 123.734C1200.67 123.734 1200.45 123.958 1200.45 124.234C1200.45 124.511 1200.67 124.734 1200.95 124.734Z" fill="white" fill-opacity="0.15"/>
<path d="M1042.61 478.309C1042.89 478.309 1043.11 478.085 1043.11 477.809C1043.11 477.532 1042.89 477.309 1042.61 477.309C1042.33 477.309 1042.11 477.532 1042.11 477.809C1042.11 478.085 1042.33 478.309 1042.61 478.309Z" fill="white" fill-opacity="0.1"/>
<path d="M170.199 614.361C170.475 614.361 170.699 614.137 170.699 613.861C170.699 613.585 170.475 613.361 170.199 613.361C169.923 613.361 169.699 613.585 169.699 613.861C169.699 614.137 169.923 614.361 170.199 614.361Z" fill="white" fill-opacity="0.1"/>
<path d="M1241.9 610.854C1242.18 610.854 1242.4 610.63 1242.4 610.354C1242.4 610.077 1242.18 609.854 1241.9 609.854C1241.62 609.854 1241.4 610.077 1241.4 610.354C1241.4 610.63 1241.62 610.854 1241.9 610.854Z" fill="white" fill-opacity="0.25"/>
<path d="M435.389 712.307C435.665 712.307 435.889 712.083 435.889 711.807C435.889 711.53 435.665 711.307 435.389 711.307C435.113 711.307 434.889 711.53 434.889 711.807C434.889 712.083 435.113 712.307 435.389 712.307Z" fill="white"/>
<path d="M770.613 196.576C770.889 196.576 771.113 196.352 771.113 196.076C771.113 195.8 770.889 195.576 770.613 195.576C770.337 195.576 770.113 195.8 770.113 196.076C770.113 196.352 770.337 196.576 770.613 196.576Z" fill="white" fill-opacity="0.15"/>
<path d="M743.587 232.285C743.863 232.285 744.087 232.061 744.087 231.785C744.087 231.509 743.863 231.285 743.587 231.285C743.311 231.285 743.087 231.509 743.087 231.785C743.087 232.061 743.311 232.285 743.587 232.285Z" fill="white" fill-opacity="0.25"/>
<path d="M1101.18 745.758C1101.46 745.758 1101.68 745.534 1101.68 745.258C1101.68 744.982 1101.46 744.758 1101.18 744.758C1100.9 744.758 1100.68 744.982 1100.68 745.258C1100.68 745.534 1100.9 745.758 1101.18 745.758Z" fill="white"/>
<path d="M334.264 512.816C334.54 512.816 334.764 512.593 334.764 512.316C334.764 512.04 334.54 511.816 334.264 511.816C333.988 511.816 333.764 512.04 333.764 512.316C333.764 512.593 333.988 512.816 334.264 512.816Z" fill="white"/>
<path d="M761.562 353.791C761.838 353.791 762.062 353.567 762.062 353.291C762.062 353.015 761.838 352.791 761.562 352.791C761.286 352.791 761.062 353.015 761.062 353.291C761.062 353.567 761.286 353.791 761.562 353.791Z" fill="white" fill-opacity="0.25"/>
<path d="M1358.57 160.91C1358.85 160.91 1359.07 160.686 1359.07 160.41C1359.07 160.134 1358.85 159.91 1358.57 159.91C1358.29 159.91 1358.07 160.134 1358.07 160.41C1358.07 160.686 1358.29 160.91 1358.57 160.91Z" fill="white" fill-opacity="0.15"/>
<path d="M800.775 172.938C801.051 172.938 801.275 172.714 801.275 172.438C801.275 172.161 801.051 171.938 800.775 171.938C800.499 171.938 800.275 172.161 800.275 172.438C800.275 172.714 800.499 172.938 800.775 172.938Z" fill="white" fill-opacity="0.05"/>
<path d="M921.495 454.104C921.771 454.104 921.995 453.88 921.995 453.604C921.995 453.327 921.771 453.104 921.495 453.104C921.219 453.104 920.995 453.327 920.995 453.604C920.995 453.88 921.219 454.104 921.495 454.104Z" fill="white" fill-opacity="0.1"/>
<path d="M952.035 246.527C952.311 246.527 952.535 246.303 952.535 246.027C952.535 245.751 952.311 245.527 952.035 245.527C951.759 245.527 951.535 245.751 951.535 246.027C951.535 246.303 951.759 246.527 952.035 246.527Z" fill="white" fill-opacity="0.15"/>
<path d="M190.39 533.619C190.666 533.619 190.89 533.395 190.89 533.119C190.89 532.843 190.666 532.619 190.39 532.619C190.114 532.619 189.89 532.843 189.89 533.119C189.89 533.395 190.114 533.619 190.39 533.619Z" fill="white" fill-opacity="0.25"/>
<path d="M257.609 611.219C257.885 611.219 258.109 610.995 258.109 610.719C258.109 610.443 257.885 610.219 257.609 610.219C257.333 610.219 257.109 610.443 257.109 610.719C257.109 610.995 257.333 611.219 257.609 611.219Z" fill="white" fill-opacity="0.15"/>
<path d="M600.368 159.576C600.644 159.576 600.868 159.352 600.868 159.076C600.868 158.8 600.644 158.576 600.368 158.576C600.092 158.576 599.868 158.8 599.868 159.076C599.868 159.352 600.092 159.576 600.368 159.576Z" fill="white" fill-opacity="0.25"/>
<path d="M987.253 505.609C987.529 505.609 987.753 505.386 987.753 505.109C987.753 504.833 987.529 504.609 987.253 504.609C986.977 504.609 986.753 504.833 986.753 505.109C986.753 505.386 986.977 505.609 987.253 505.609Z" fill="white"/>
<path d="M659.932 792.59C660.208 792.59 660.432 792.366 660.432 792.09C660.432 791.814 660.208 791.59 659.932 791.59C659.656 791.59 659.432 791.814 659.432 792.09C659.432 792.366 659.656 792.59 659.932 792.59Z" fill="white" fill-opacity="0.05"/>
<path d="M526.229 548.133C526.505 548.133 526.729 547.909 526.729 547.633C526.729 547.357 526.505 547.133 526.229 547.133C525.953 547.133 525.729 547.357 525.729 547.633C525.729 547.909 525.953 548.133 526.229 548.133Z" fill="white" fill-opacity="0.25"/>
<path d="M23.9521 185.207C24.2283 185.207 24.4521 184.983 24.4521 184.707C24.4521 184.431 24.2283 184.207 23.9521 184.207C23.676 184.207 23.4521 184.431 23.4521 184.707C23.4521 184.983 23.676 185.207 23.9521 185.207Z" fill="white" fill-opacity="0.1"/>
<path d="M673.521 796.816C673.797 796.816 674.021 796.593 674.021 796.316C674.021 796.04 673.797 795.816 673.521 795.816C673.245 795.816 673.021 796.04 673.021 796.316C673.021 796.593 673.245 796.816 673.521 796.816Z" fill="white" fill-opacity="0.25"/>
<path d="M573.193 505.162C573.469 505.162 573.693 504.938 573.693 504.662C573.693 504.386 573.469 504.162 573.193 504.162C572.917 504.162 572.693 504.386 572.693 504.662C572.693 504.938 572.917 505.162 573.193 505.162Z" fill="white" fill-opacity="0.1"/>
<path d="M464.928 454.264C465.204 454.264 465.428 454.04 465.428 453.764C465.428 453.488 465.204 453.264 464.928 453.264C464.652 453.264 464.428 453.488 464.428 453.764C464.428 454.04 464.652 454.264 464.928 454.264Z" fill="white"/>
<path d="M1038.68 362.371C1038.96 362.371 1039.18 362.147 1039.18 361.871C1039.18 361.595 1038.96 361.371 1038.68 361.371C1038.4 361.371 1038.18 361.595 1038.18 361.871C1038.18 362.147 1038.4 362.371 1038.68 362.371Z" fill="white" fill-opacity="0.1"/>
<path d="M273.032 641.457C273.308 641.457 273.532 641.233 273.532 640.957C273.532 640.681 273.308 640.457 273.032 640.457C272.756 640.457 272.532 640.681 272.532 640.957C272.532 641.233 272.756 641.457 273.032 641.457Z" fill="white" fill-opacity="0.1"/>
<path d="M985.831 12.8203C986.107 12.8203 986.331 12.5965 986.331 12.3203C986.331 12.0442 986.107 11.8203 985.831 11.8203C985.555 11.8203 985.331 12.0442 985.331 12.3203C985.331 12.5965 985.555 12.8203 985.831 12.8203Z" fill="white" fill-opacity="0.15"/>
<path d="M431.29 630.609C431.566 630.609 431.79 630.386 431.79 630.109C431.79 629.833 431.566 629.609 431.29 629.609C431.014 629.609 430.79 629.833 430.79 630.109C430.79 630.386 431.014 630.609 431.29 630.609Z" fill="white" fill-opacity="0.05"/>
<path d="M1001.99 224.521C1002.27 224.521 1002.49 224.298 1002.49 224.021C1002.49 223.745 1002.27 223.521 1001.99 223.521C1001.71 223.521 1001.49 223.745 1001.49 224.021C1001.49 224.298 1001.71 224.521 1001.99 224.521Z" fill="white" fill-opacity="0.25"/>
<path d="M64.9902 438.41C65.2664 438.41 65.4902 438.186 65.4902 437.91C65.4902 437.634 65.2664 437.41 64.9902 437.41C64.7141 437.41 64.4902 437.634 64.4902 437.91C64.4902 438.186 64.7141 438.41 64.9902 438.41Z" fill="white" fill-opacity="0.25"/>
<path d="M1003.95 46.2559C1004.23 46.2559 1004.45 46.032 1004.45 45.7559C1004.45 45.4797 1004.23 45.2559 1003.95 45.2559C1003.67 45.2559 1003.45 45.4797 1003.45 45.7559C1003.45 46.032 1003.67 46.2559 1003.95 46.2559Z" fill="white" fill-opacity="0.15"/>
<path d="M1221.4 461.02C1221.68 461.02 1221.9 460.796 1221.9 460.52C1221.9 460.243 1221.68 460.02 1221.4 460.02C1221.12 460.02 1220.9 460.243 1220.9 460.52C1220.9 460.796 1221.12 461.02 1221.4 461.02Z" fill="white" fill-opacity="0.15"/>
<path d="M1320.65 244.398C1320.93 244.398 1321.15 244.175 1321.15 243.898C1321.15 243.622 1320.93 243.398 1320.65 243.398C1320.37 243.398 1320.15 243.622 1320.15 243.898C1320.15 244.175 1320.37 244.398 1320.65 244.398Z" fill="white" fill-opacity="0.1"/>
<path d="M1249.87 643.654C1250.15 643.654 1250.37 643.43 1250.37 643.154C1250.37 642.878 1250.15 642.654 1249.87 642.654C1249.59 642.654 1249.37 642.878 1249.37 643.154C1249.37 643.43 1249.59 643.654 1249.87 643.654Z" fill="white"/>
<path d="M103.097 778.471C103.373 778.471 103.597 778.247 103.597 777.971C103.597 777.695 103.373 777.471 103.097 777.471C102.821 777.471 102.597 777.695 102.597 777.971C102.597 778.247 102.821 778.471 103.097 778.471Z" fill="white" fill-opacity="0.1"/>
<path d="M127.825 659.537C128.101 659.537 128.325 659.313 128.325 659.037C128.325 658.761 128.101 658.537 127.825 658.537C127.549 658.537 127.325 658.761 127.325 659.037C127.325 659.313 127.549 659.537 127.825 659.537Z" fill="white" fill-opacity="0.1"/>
<path d="M525.277 384.42C525.553 384.42 525.777 384.196 525.777 383.92C525.777 383.644 525.553 383.42 525.277 383.42C525.001 383.42 524.777 383.644 524.777 383.92C524.777 384.196 525.001 384.42 525.277 384.42Z" fill="white" fill-opacity="0.1"/>
<path d="M981.979 237.635C982.255 237.635 982.479 237.411 982.479 237.135C982.479 236.859 982.255 236.635 981.979 236.635C981.703 236.635 981.479 236.859 981.479 237.135C981.479 237.411 981.703 237.635 981.979 237.635Z" fill="white" fill-opacity="0.05"/>
<path d="M59.8818 108.812C60.158 108.812 60.3818 108.589 60.3818 108.312C60.3818 108.036 60.158 107.812 59.8818 107.812C59.6057 107.812 59.3818 108.036 59.3818 108.312C59.3818 108.589 59.6057 108.812 59.8818 108.812Z" fill="white" fill-opacity="0.15"/>
<path d="M186.727 776.141C187.003 776.141 187.227 775.917 187.227 775.641C187.227 775.364 187.003 775.141 186.727 775.141C186.45 775.141 186.227 775.364 186.227 775.641C186.227 775.917 186.45 776.141 186.727 776.141Z" fill="white" fill-opacity="0.05"/>
<path d="M977.573 393.445C977.849 393.445 978.073 393.221 978.073 392.945C978.073 392.669 977.849 392.445 977.573 392.445C977.297 392.445 977.073 392.669 977.073 392.945C977.073 393.221 977.297 393.445 977.573 393.445Z" fill="white" fill-opacity="0.25"/>
<path d="M629.617 592.625C629.893 592.625 630.117 592.401 630.117 592.125C630.117 591.849 629.893 591.625 629.617 591.625C629.341 591.625 629.117 591.849 629.117 592.125C629.117 592.401 629.341 592.625 629.617 592.625Z" fill="white" fill-opacity="0.1"/>
<path d="M548.661 792.701C548.937 792.701 549.161 792.477 549.161 792.201C549.161 791.925 548.937 791.701 548.661 791.701C548.385 791.701 548.161 791.925 548.161 792.201C548.161 792.477 548.385 792.701 548.661 792.701Z" fill="white" fill-opacity="0.25"/>
<path d="M350.414 188.678C350.69 188.678 350.914 188.454 350.914 188.178C350.914 187.902 350.69 187.678 350.414 187.678C350.138 187.678 349.914 187.902 349.914 188.178C349.914 188.454 350.138 188.678 350.414 188.678Z" fill="white" fill-opacity="0.1"/>
<path d="M696.392 529.891C696.668 529.891 696.892 529.667 696.892 529.391C696.892 529.114 696.668 528.891 696.392 528.891C696.116 528.891 695.892 529.114 695.892 529.391C695.892 529.667 696.116 529.891 696.392 529.891Z" fill="white" fill-opacity="0.05"/>
<path d="M686.42 720.061C686.696 720.061 686.92 719.837 686.92 719.561C686.92 719.284 686.696 719.061 686.42 719.061C686.144 719.061 685.92 719.284 685.92 719.561C685.92 719.837 686.144 720.061 686.42 720.061Z" fill="white" fill-opacity="0.15"/>
<path d="M161.956 670.654C162.232 670.654 162.456 670.43 162.456 670.154C162.456 669.878 162.232 669.654 161.956 669.654C161.68 669.654 161.456 669.878 161.456 670.154C161.456 670.43 161.68 670.654 161.956 670.654Z" fill="white" fill-opacity="0.25"/>
<path d="M1108.43 752.811C1108.71 752.811 1108.93 752.587 1108.93 752.311C1108.93 752.034 1108.71 751.811 1108.43 751.811C1108.15 751.811 1107.93 752.034 1107.93 752.311C1107.93 752.587 1108.15 752.811 1108.43 752.811Z" fill="white" fill-opacity="0.25"/>
<path d="M800.328 464.717C800.604 464.717 800.828 464.493 800.828 464.217C800.828 463.941 800.604 463.717 800.328 463.717C800.052 463.717 799.828 463.941 799.828 464.217C799.828 464.493 800.052 464.717 800.328 464.717Z" fill="white" fill-opacity="0.25"/>
<path d="M1165.64 477.172C1165.92 477.172 1166.14 476.948 1166.14 476.672C1166.14 476.396 1165.92 476.172 1165.64 476.172C1165.36 476.172 1165.14 476.396 1165.14 476.672C1165.14 476.948 1165.36 477.172 1165.64 477.172Z" fill="white" fill-opacity="0.25"/>
<path d="M1149.43 674.951C1149.71 674.951 1149.93 674.727 1149.93 674.451C1149.93 674.175 1149.71 673.951 1149.43 673.951C1149.15 673.951 1148.93 674.175 1148.93 674.451C1148.93 674.727 1149.15 674.951 1149.43 674.951Z" fill="white" fill-opacity="0.1"/>
<path d="M255.981 607.604C256.257 607.604 256.481 607.38 256.481 607.104C256.481 606.827 256.257 606.604 255.981 606.604C255.705 606.604 255.481 606.827 255.481 607.104C255.481 607.38 255.705 607.604 255.981 607.604Z" fill="white" fill-opacity="0.05"/>
<path d="M601.396 510.604C601.672 510.604 601.896 510.38 601.896 510.104C601.896 509.827 601.672 509.604 601.396 509.604C601.12 509.604 600.896 509.827 600.896 510.104C600.896 510.38 601.12 510.604 601.396 510.604Z" fill="white" fill-opacity="0.05"/>
<path d="M6.55664 354.436C6.83278 354.436 7.05664 354.212 7.05664 353.936C7.05664 353.659 6.83278 353.436 6.55664 353.436C6.2805 353.436 6.05664 353.659 6.05664 353.936C6.05664 354.212 6.2805 354.436 6.55664 354.436Z" fill="white" fill-opacity="0.15"/>
<path d="M574.153 360.6C574.429 360.6 574.653 360.376 574.653 360.1C574.653 359.823 574.429 359.6 574.153 359.6C573.877 359.6 573.653 359.823 573.653 360.1C573.653 360.376 573.877 360.6 574.153 360.6Z" fill="white" fill-opacity="0.1"/>
<path d="M335.604 36.6074C335.88 36.6074 336.104 36.3836 336.104 36.1074C336.104 35.8313 335.88 35.6074 335.604 35.6074C335.328 35.6074 335.104 35.8313 335.104 36.1074C335.104 36.3836 335.328 36.6074 335.604 36.6074Z" fill="white" fill-opacity="0.05"/>
<path d="M293.833 258.082C294.109 258.082 294.333 257.858 294.333 257.582C294.333 257.306 294.109 257.082 293.833 257.082C293.557 257.082 293.333 257.306 293.333 257.582C293.333 257.858 293.557 258.082 293.833 258.082Z" fill="white" fill-opacity="0.25"/>
<path d="M148.737 362.854C149.013 362.854 149.237 362.63 149.237 362.354C149.237 362.077 149.013 361.854 148.737 361.854C148.461 361.854 148.237 362.077 148.237 362.354C148.237 362.63 148.461 362.854 148.737 362.854Z" fill="white" fill-opacity="0.25"/>
<path d="M451.245 459.418C451.521 459.418 451.745 459.194 451.745 458.918C451.745 458.642 451.521 458.418 451.245 458.418C450.969 458.418 450.745 458.642 450.745 458.918C450.745 459.194 450.969 459.418 451.245 459.418Z" fill="white" fill-opacity="0.05"/>
<path d="M1057.55 751.934C1057.83 751.934 1058.05 751.71 1058.05 751.434C1058.05 751.157 1057.83 750.934 1057.55 750.934C1057.27 750.934 1057.05 751.157 1057.05 751.434C1057.05 751.71 1057.27 751.934 1057.55 751.934Z" fill="white" fill-opacity="0.05"/>
<path d="M457.847 104.488C458.123 104.488 458.347 104.264 458.347 103.988C458.347 103.712 458.123 103.488 457.847 103.488C457.571 103.488 457.347 103.712 457.347 103.988C457.347 104.264 457.571 104.488 457.847 104.488Z" fill="white" fill-opacity="0.05"/>
<path d="M540.545 375.725C540.821 375.725 541.045 375.501 541.045 375.225C541.045 374.948 540.821 374.725 540.545 374.725C540.269 374.725 540.045 374.948 540.045 375.225C540.045 375.501 540.269 375.725 540.545 375.725Z" fill="white" fill-opacity="0.15"/>
<path d="M1233.24 230.699C1233.52 230.699 1233.74 230.475 1233.74 230.199C1233.74 229.923 1233.52 229.699 1233.24 229.699C1232.96 229.699 1232.74 229.923 1232.74 230.199C1232.74 230.475 1232.96 230.699 1233.24 230.699Z" fill="white" fill-opacity="0.05"/>
<path d="M988.997 111.883C989.273 111.883 989.497 111.659 989.497 111.383C989.497 111.107 989.273 110.883 988.997 110.883C988.721 110.883 988.497 111.107 988.497 111.383C988.497 111.659 988.721 111.883 988.997 111.883Z" fill="white" fill-opacity="0.15"/>
<path d="M1085.96 384.543C1086.24 384.543 1086.46 384.319 1086.46 384.043C1086.46 383.767 1086.24 383.543 1085.96 383.543C1085.68 383.543 1085.46 383.767 1085.46 384.043C1085.46 384.319 1085.68 384.543 1085.96 384.543Z" fill="white" fill-opacity="0.1"/>
<path d="M734 521.453C734.276 521.453 734.5 521.229 734.5 520.953C734.5 520.677 734.276 520.453 734 520.453C733.724 520.453 733.5 520.677 733.5 520.953C733.5 521.229 733.724 521.453 734 521.453Z" fill="white" fill-opacity="0.05"/>
<path d="M624.229 245.039C624.505 245.039 624.729 244.815 624.729 244.539C624.729 244.263 624.505 244.039 624.229 244.039C623.953 244.039 623.729 244.263 623.729 244.539C623.729 244.815 623.953 245.039 624.229 245.039Z" fill="white" fill-opacity="0.05"/>
<path d="M230.557 709.361C230.833 709.361 231.057 709.137 231.057 708.861C231.057 708.585 230.833 708.361 230.557 708.361C230.281 708.361 230.057 708.585 230.057 708.861C230.057 709.137 230.281 709.361 230.557 709.361Z" fill="white" fill-opacity="0.15"/>
<path d="M713.428 431.988C713.704 431.988 713.928 431.764 713.928 431.488C713.928 431.212 713.704 430.988 713.428 430.988C713.152 430.988 712.928 431.212 712.928 431.488C712.928 431.764 713.152 431.988 713.428 431.988Z" fill="white" fill-opacity="0.15"/>
<path d="M730.724 112.398C731 112.398 731.224 112.175 731.224 111.898C731.224 111.622 731 111.398 730.724 111.398C730.448 111.398 730.224 111.622 730.224 111.898C730.224 112.175 730.448 112.398 730.724 112.398Z" fill="white" fill-opacity="0.05"/>
<path d="M1214.85 258.465C1215.13 258.465 1215.35 258.241 1215.35 257.965C1215.35 257.689 1215.13 257.465 1214.85 257.465C1214.57 257.465 1214.35 257.689 1214.35 257.965C1214.35 258.241 1214.57 258.465 1214.85 258.465Z" fill="white" fill-opacity="0.05"/>
<path d="M569.874 457.859C570.15 457.859 570.374 457.636 570.374 457.359C570.374 457.083 570.15 456.859 569.874 456.859C569.598 456.859 569.374 457.083 569.374 457.359C569.374 457.636 569.598 457.859 569.874 457.859Z" fill="white"/>
<path d="M927.212 138.578C927.488 138.578 927.712 138.354 927.712 138.078C927.712 137.802 927.488 137.578 927.212 137.578C926.936 137.578 926.712 137.802 926.712 138.078C926.712 138.354 926.936 138.578 927.212 138.578Z" fill="white" fill-opacity="0.05"/>
<path d="M913.574 431.43C913.85 431.43 914.074 431.206 914.074 430.93C914.074 430.654 913.85 430.43 913.574 430.43C913.298 430.43 913.074 430.654 913.074 430.93C913.074 431.206 913.298 431.43 913.574 431.43Z" fill="white" fill-opacity="0.25"/>
<path d="M915.718 579.586C915.994 579.586 916.218 579.362 916.218 579.086C916.218 578.81 915.994 578.586 915.718 578.586C915.442 578.586 915.218 578.81 915.218 579.086C915.218 579.362 915.442 579.586 915.718 579.586Z" fill="white" fill-opacity="0.1"/>
<path d="M361.374 72.9473C361.65 72.9473 361.874 72.7234 361.874 72.4473C361.874 72.1711 361.65 71.9473 361.374 71.9473C361.098 71.9473 360.874 72.1711 360.874 72.4473C360.874 72.7234 361.098 72.9473 361.374 72.9473Z" fill="white" fill-opacity="0.05"/>
<path d="M709.228 322.867C709.504 322.867 709.728 322.643 709.728 322.367C709.728 322.091 709.504 321.867 709.228 321.867C708.952 321.867 708.728 322.091 708.728 322.367C708.728 322.643 708.952 322.867 709.228 322.867Z" fill="white" fill-opacity="0.05"/>
<path d="M1014.01 442.469C1014.29 442.469 1014.51 442.245 1014.51 441.969C1014.51 441.693 1014.29 441.469 1014.01 441.469C1013.73 441.469 1013.51 441.693 1013.51 441.969C1013.51 442.245 1013.73 442.469 1014.01 442.469Z" fill="white" fill-opacity="0.1"/>
<path d="M1002.28 90.5723C1002.56 90.5723 1002.78 90.3484 1002.78 90.0723C1002.78 89.7961 1002.56 89.5723 1002.28 89.5723C1002 89.5723 1001.78 89.7961 1001.78 90.0723C1001.78 90.3484 1002 90.5723 1002.28 90.5723Z" fill="white" fill-opacity="0.25"/>
<path d="M782.344 514.941C782.62 514.941 782.844 514.718 782.844 514.441C782.844 514.165 782.62 513.941 782.344 513.941C782.068 513.941 781.844 514.165 781.844 514.441C781.844 514.718 782.068 514.941 782.344 514.941Z" fill="white" fill-opacity="0.15"/>
<path d="M852.556 120.152C852.832 120.152 853.056 119.928 853.056 119.652C853.056 119.376 852.832 119.152 852.556 119.152C852.28 119.152 852.056 119.376 852.056 119.652C852.056 119.928 852.28 120.152 852.556 120.152Z" fill="white" fill-opacity="0.25"/>
<path d="M53.291 301.777C53.5672 301.777 53.791 301.553 53.791 301.277C53.791 301.001 53.5672 300.777 53.291 300.777C53.0149 300.777 52.791 301.001 52.791 301.277C52.791 301.553 53.0149 301.777 53.291 301.777Z" fill="white" fill-opacity="0.05"/>
<path d="M476.845 191.049C477.121 191.049 477.345 190.825 477.345 190.549C477.345 190.273 477.121 190.049 476.845 190.049C476.569 190.049 476.345 190.273 476.345 190.549C476.345 190.825 476.569 191.049 476.845 191.049Z" fill="white" fill-opacity="0.1"/>
<path d="M1144.71 96.8047C1144.99 96.8047 1145.21 96.5808 1145.21 96.3047C1145.21 96.0285 1144.99 95.8047 1144.71 95.8047C1144.43 95.8047 1144.21 96.0285 1144.21 96.3047C1144.21 96.5808 1144.43 96.8047 1144.71 96.8047Z" fill="white" fill-opacity="0.25"/>
<path d="M535.613 403.965C535.889 403.965 536.113 403.741 536.113 403.465C536.113 403.189 535.889 402.965 535.613 402.965C535.337 402.965 535.113 403.189 535.113 403.465C535.113 403.741 535.337 403.965 535.613 403.965Z" fill="white" fill-opacity="0.1"/>
<path d="M77.9902 517.293C78.2664 517.293 78.4902 517.069 78.4902 516.793C78.4902 516.517 78.2664 516.293 77.9902 516.293C77.7141 516.293 77.4902 516.517 77.4902 516.793C77.4902 517.069 77.7141 517.293 77.9902 517.293Z" fill="white" fill-opacity="0.25"/>
<path d="M884.314 584.066C884.59 584.066 884.814 583.843 884.814 583.566C884.814 583.29 884.59 583.066 884.314 583.066C884.038 583.066 883.814 583.29 883.814 583.566C883.814 583.843 884.038 584.066 884.314 584.066Z" fill="white" fill-opacity="0.25"/>
<path d="M1033.83 11.252C1034.11 11.252 1034.33 11.0281 1034.33 10.752C1034.33 10.4758 1034.11 10.252 1033.83 10.252C1033.55 10.252 1033.33 10.4758 1033.33 10.752C1033.33 11.0281 1033.55 11.252 1033.83 11.252Z" fill="white"/>
<path d="M850.115 357.734C850.391 357.734 850.615 357.511 850.615 357.234C850.615 356.958 850.391 356.734 850.115 356.734C849.839 356.734 849.615 356.958 849.615 357.234C849.615 357.511 849.839 357.734 850.115 357.734Z" fill="white" fill-opacity="0.05"/>
<path d="M513.42 184.656C513.696 184.656 513.92 184.432 513.92 184.156C513.92 183.88 513.696 183.656 513.42 183.656C513.144 183.656 512.92 183.88 512.92 184.156C512.92 184.432 513.144 184.656 513.42 184.656Z" fill="white" fill-opacity="0.1"/>
<path d="M1201.53 585.963C1201.81 585.963 1202.03 585.739 1202.03 585.463C1202.03 585.187 1201.81 584.963 1201.53 584.963C1201.25 584.963 1201.03 585.187 1201.03 585.463C1201.03 585.739 1201.25 585.963 1201.53 585.963Z" fill="white" fill-opacity="0.1"/>
<path d="M717.35 436.354C717.626 436.354 717.85 436.13 717.85 435.854C717.85 435.577 717.626 435.354 717.35 435.354C717.074 435.354 716.85 435.577 716.85 435.854C716.85 436.13 717.074 436.354 717.35 436.354Z" fill="white" fill-opacity="0.25"/>
<path d="M273.611 361.885C273.887 361.885 274.111 361.661 274.111 361.385C274.111 361.109 273.887 360.885 273.611 360.885C273.335 360.885 273.111 361.109 273.111 361.385C273.111 361.661 273.335 361.885 273.611 361.885Z" fill="white" fill-opacity="0.15"/>
<path d="M527.159 255.529C527.435 255.529 527.659 255.305 527.659 255.029C527.659 254.753 527.435 254.529 527.159 254.529C526.883 254.529 526.659 254.753 526.659 255.029C526.659 255.305 526.883 255.529 527.159 255.529Z" fill="white" fill-opacity="0.25"/>
<path d="M166.478 85.3105C166.754 85.3105 166.978 85.0867 166.978 84.8105C166.978 84.5344 166.754 84.3105 166.478 84.3105C166.201 84.3105 165.978 84.5344 165.978 84.8105C165.978 85.0867 166.201 85.3105 166.478 85.3105Z" fill="white" fill-opacity="0.05"/>
<path d="M1319.56 474.729C1319.84 474.729 1320.06 474.505 1320.06 474.229C1320.06 473.952 1319.84 473.729 1319.56 473.729C1319.28 473.729 1319.06 473.952 1319.06 474.229C1319.06 474.505 1319.28 474.729 1319.56 474.729Z" fill="white" fill-opacity="0.05"/>
<path d="M1241.36 702.148C1241.64 702.148 1241.86 701.925 1241.86 701.648C1241.86 701.372 1241.64 701.148 1241.36 701.148C1241.08 701.148 1240.86 701.372 1240.86 701.648C1240.86 701.925 1241.08 702.148 1241.36 702.148Z" fill="white" fill-opacity="0.25"/>
<path d="M281.091 443.738C281.367 443.738 281.591 443.514 281.591 443.238C281.591 442.962 281.367 442.738 281.091 442.738C280.815 442.738 280.591 442.962 280.591 443.238C280.591 443.514 280.815 443.738 281.091 443.738Z" fill="white" fill-opacity="0.25"/>
<path d="M858.252 741.082C858.528 741.082 858.752 740.858 858.752 740.582C858.752 740.306 858.528 740.082 858.252 740.082C857.976 740.082 857.752 740.306 857.752 740.582C857.752 740.858 857.976 741.082 858.252 741.082Z" fill="white" fill-opacity="0.15"/>
<path d="M1191.4 512.088C1191.68 512.088 1191.9 511.864 1191.9 511.588C1191.9 511.312 1191.68 511.088 1191.4 511.088C1191.12 511.088 1190.9 511.312 1190.9 511.588C1190.9 511.864 1191.12 512.088 1191.4 512.088Z" fill="white" fill-opacity="0.1"/>
<path d="M272.71 485.467C272.986 485.467 273.21 485.243 273.21 484.967C273.21 484.691 272.986 484.467 272.71 484.467C272.434 484.467 272.21 484.691 272.21 484.967C272.21 485.243 272.434 485.467 272.71 485.467Z" fill="white" fill-opacity="0.1"/>
<path d="M1102.19 524.432C1102.47 524.432 1102.69 524.208 1102.69 523.932C1102.69 523.655 1102.47 523.432 1102.19 523.432C1101.91 523.432 1101.69 523.655 1101.69 523.932C1101.69 524.208 1101.91 524.432 1102.19 524.432Z" fill="white" fill-opacity="0.25"/>
<path d="M377.407 529.424C377.683 529.424 377.907 529.2 377.907 528.924C377.907 528.648 377.683 528.424 377.407 528.424C377.131 528.424 376.907 528.648 376.907 528.924C376.907 529.2 377.131 529.424 377.407 529.424Z" fill="white" fill-opacity="0.15"/>
<path d="M45.6113 143.627C45.8875 143.627 46.1113 143.403 46.1113 143.127C46.1113 142.851 45.8875 142.627 45.6113 142.627C45.3352 142.627 45.1113 142.851 45.1113 143.127C45.1113 143.403 45.3352 143.627 45.6113 143.627Z" fill="white" fill-opacity="0.05"/>
<path d="M370.422 153.842C370.698 153.842 370.922 153.618 370.922 153.342C370.922 153.066 370.698 152.842 370.422 152.842C370.146 152.842 369.922 153.066 369.922 153.342C369.922 153.618 370.146 153.842 370.422 153.842Z" fill="white"/>
<path d="M751.432 300.885C751.708 300.885 751.932 300.661 751.932 300.385C751.932 300.109 751.708 299.885 751.432 299.885C751.156 299.885 750.932 300.109 750.932 300.385C750.932 300.661 751.156 300.885 751.432 300.885Z" fill="white" fill-opacity="0.15"/>
<path d="M477.312 244.188C477.588 244.188 477.812 243.964 477.812 243.688C477.812 243.411 477.588 243.188 477.312 243.188C477.036 243.188 476.812 243.411 476.812 243.688C476.812 243.964 477.036 244.188 477.312 244.188Z" fill="white" fill-opacity="0.25"/>
<path d="M57.2754 73.7852L57.6997 74.8609L58.7754 75.2852L57.6997 75.7095L57.2754 76.7852L56.8511 75.7095L55.7754 75.2852L56.8511 74.8609L57.2754 73.7852Z" fill="white" fill-opacity="0.25"/>
<path d="M434.367 368.953L434.791 370.029L435.867 370.453L434.791 370.877L434.367 371.953L433.943 370.877L432.867 370.453L433.943 370.029L434.367 368.953Z" fill="white" fill-opacity="0.15"/>
<path d="M30.0723 163.148L30.4965 164.224L31.5723 164.648L30.4965 165.072L30.0723 166.148L29.648 165.072L28.5723 164.648L29.648 164.224L30.0723 163.148Z" fill="white" fill-opacity="0.1"/>
<path d="M324.739 436.438L325.164 437.513L326.239 437.938L325.164 438.362L324.739 439.438L324.315 438.362L323.239 437.938L324.315 437.513L324.739 436.438Z" fill="white" fill-opacity="0.25"/>
<path d="M368.333 323.746L368.757 324.822L369.833 325.246L368.757 325.671L368.333 326.746L367.909 325.671L366.833 325.246L367.909 324.822L368.333 323.746Z" fill="white" fill-opacity="0.15"/>
<path d="M987.144 95.3887L987.568 96.4645L988.644 96.8887L987.568 97.313L987.144 98.3887L986.719 97.313L985.644 96.8887L986.719 96.4645L987.144 95.3887Z" fill="white" fill-opacity="0.15"/>
<path d="M1233.19 731.111L1233.61 732.186L1234.69 732.611L1233.61 733.035L1233.19 734.111L1232.76 733.035L1231.69 732.611L1232.76 732.186L1233.19 731.111Z" fill="white" fill-opacity="0.05"/>
<path d="M824.787 131.828L825.211 132.903L826.287 133.328L825.211 133.752L824.787 134.828L824.363 133.752L823.287 133.328L824.363 132.903L824.787 131.828Z" fill="white" fill-opacity="0.1"/>
<path d="M1260.54 56.1055L1260.97 57.1812L1262.04 57.6055L1260.97 58.0297L1260.54 59.1055L1260.12 58.0297L1259.04 57.6055L1260.12 57.1812L1260.54 56.1055Z" fill="white" fill-opacity="0.25"/>
<path d="M661.514 240.193L661.938 241.268L663.014 241.693L661.938 242.117L661.514 243.193L661.089 242.117L660.014 241.693L661.089 241.268L661.514 240.193Z" fill="white" fill-opacity="0.1"/>
<path d="M1338.25 733.172L1338.67 734.248L1339.75 734.672L1338.67 735.096L1338.25 736.172L1337.82 735.096L1336.75 734.672L1337.82 734.248L1338.25 733.172Z" fill="white" fill-opacity="0.1"/>
<path d="M388.248 227.197L388.672 228.272L389.748 228.697L388.672 229.121L388.248 230.197L387.824 229.121L386.748 228.697L387.824 228.272L388.248 227.197Z" fill="white" fill-opacity="0.25"/>
<path d="M843.945 751.25L844.37 752.325L845.445 752.75L844.37 753.174L843.945 754.25L843.521 753.174L842.445 752.75L843.521 752.325L843.945 751.25Z" fill="white" fill-opacity="0.15"/>
<path d="M193.484 406.418L193.909 407.494L194.984 407.918L193.909 408.343L193.484 409.418L193.06 408.343L191.984 407.918L193.06 407.494L193.484 406.418Z" fill="white" fill-opacity="0.25"/>
<path d="M1298.71 247.152L1299.14 248.228L1300.21 248.652L1299.14 249.077L1298.71 250.152L1298.29 249.077L1297.21 248.652L1298.29 248.228L1298.71 247.152Z" fill="white" fill-opacity="0.25"/>
<path d="M907.09 408.053L907.514 409.129L908.59 409.553L907.514 409.978L907.09 411.053L906.666 409.978L905.59 409.553L906.666 409.129L907.09 408.053Z" fill="white" fill-opacity="0.1"/>
<path d="M907.84 73.5605L908.264 74.6363L909.34 75.0605L908.264 75.4848L907.84 76.5605L907.416 75.4848L906.34 75.0605L907.416 74.6363L907.84 73.5605Z" fill="white" fill-opacity="0.05"/>
<path d="M236.071 363.428L236.496 364.504L237.571 364.928L236.496 365.352L236.071 366.428L235.647 365.352L234.571 364.928L235.647 364.504L236.071 363.428Z" fill="white" fill-opacity="0.05"/>
<path d="M1351.85 201.535L1352.28 202.611L1353.35 203.035L1352.28 203.459L1351.85 204.535L1351.43 203.459L1350.35 203.035L1351.43 202.611L1351.85 201.535Z" fill="white" fill-opacity="0.25"/>
<path d="M386.789 448.357L387.213 449.433L388.289 449.857L387.213 450.281L386.789 451.357L386.365 450.281L385.289 449.857L386.365 449.433L386.789 448.357Z" fill="white" fill-opacity="0.15"/>
<path d="M1344.66 590.807L1345.09 591.882L1346.16 592.307L1345.09 592.731L1344.66 593.807L1344.24 592.731L1343.16 592.307L1344.24 591.882L1344.66 590.807Z" fill="white" fill-opacity="0.1"/>
<path d="M1325.01 450.1L1325.44 451.175L1326.51 451.6L1325.44 452.024L1325.01 453.1L1324.59 452.024L1323.51 451.6L1324.59 451.175L1325.01 450.1Z" fill="white" fill-opacity="0.05"/>
<path d="M1083.1 748.93L1083.52 750.006L1084.6 750.43L1083.52 750.854L1083.1 751.93L1082.67 750.854L1081.6 750.43L1082.67 750.006L1083.1 748.93Z" fill="white" fill-opacity="0.25"/>
<path d="M624.508 476.037C625.336 476.037 626.008 475.366 626.008 474.537C626.008 473.709 625.336 473.037 624.508 473.037C623.679 473.037 623.008 473.709 623.008 474.537C623.008 475.366 623.679 476.037 624.508 476.037Z" fill="white" fill-opacity="0.1"/>
<path d="M887.345 311.074C888.173 311.074 888.845 310.403 888.845 309.574C888.845 308.746 888.173 308.074 887.345 308.074C886.516 308.074 885.845 308.746 885.845 309.574C885.845 310.403 886.516 311.074 887.345 311.074Z" fill="white" fill-opacity="0.15"/>
<path d="M792.133 491.307C792.961 491.307 793.633 490.635 793.633 489.807C793.633 488.978 792.961 488.307 792.133 488.307C791.304 488.307 790.633 488.978 790.633 489.807C790.633 490.635 791.304 491.307 792.133 491.307Z" fill="white" fill-opacity="0.15"/>
<path d="M1193.91 785.379C1194.74 785.379 1195.41 784.707 1195.41 783.879C1195.41 783.05 1194.74 782.379 1193.91 782.379C1193.08 782.379 1192.41 783.05 1192.41 783.879C1192.41 784.707 1193.08 785.379 1193.91 785.379Z" fill="white" fill-opacity="0.25"/>
<path d="M1166.82 568.092C1167.65 568.092 1168.32 567.42 1168.32 566.592C1168.32 565.763 1167.65 565.092 1166.82 565.092C1165.99 565.092 1165.32 565.763 1165.32 566.592C1165.32 567.42 1165.99 568.092 1166.82 568.092Z" fill="white" fill-opacity="0.15"/>
<path d="M29.8877 15.2188C30.7161 15.2188 31.3877 14.5472 31.3877 13.7188C31.3877 12.8903 30.7161 12.2188 29.8877 12.2188C29.0593 12.2188 28.3877 12.8903 28.3877 13.7188C28.3877 14.5472 29.0593 15.2188 29.8877 15.2188Z" fill="white" fill-opacity="0.25"/>
<path d="M224.616 97.1367C225.445 97.1367 226.116 96.4651 226.116 95.6367C226.116 94.8083 225.445 94.1367 224.616 94.1367C223.788 94.1367 223.116 94.8083 223.116 95.6367C223.116 96.4651 223.788 97.1367 224.616 97.1367Z" fill="white" fill-opacity="0.25"/>
<path d="M767.402 781.451C768.23 781.451 768.902 780.78 768.902 779.951C768.902 779.123 768.23 778.451 767.402 778.451C766.573 778.451 765.902 779.123 765.902 779.951C765.902 780.78 766.573 781.451 767.402 781.451Z" fill="white" fill-opacity="0.25"/>
<path d="M619.845 597.684C620.673 597.684 621.345 597.012 621.345 596.184C621.345 595.355 620.673 594.684 619.845 594.684C619.016 594.684 618.345 595.355 618.345 596.184C618.345 597.012 619.016 597.684 619.845 597.684Z" fill="white" fill-opacity="0.05"/>
<path d="M943.748 685.848C944.576 685.848 945.248 685.176 945.248 684.348C945.248 683.519 944.576 682.848 943.748 682.848C942.92 682.848 942.248 683.519 942.248 684.348C942.248 685.176 942.92 685.848 943.748 685.848Z" fill="white" fill-opacity="0.05"/>
<path d="M943.775 290.473C944.603 290.473 945.275 289.801 945.275 288.973C945.275 288.144 944.603 287.473 943.775 287.473C942.946 287.473 942.275 288.144 942.275 288.973C942.275 289.801 942.946 290.473 943.775 290.473Z" fill="white" fill-opacity="0.15"/>
<path d="M1130.14 214.035C1130.97 214.035 1131.64 213.364 1131.64 212.535C1131.64 211.707 1130.97 211.035 1130.14 211.035C1129.31 211.035 1128.64 211.707 1128.64 212.535C1128.64 213.364 1129.31 214.035 1130.14 214.035Z" fill="white" fill-opacity="0.15"/>
<path d="M577.748 73.7207C578.576 73.7207 579.248 73.0491 579.248 72.2207C579.248 71.3923 578.576 70.7207 577.748 70.7207C576.92 70.7207 576.248 71.3923 576.248 72.2207C576.248 73.0491 576.92 73.7207 577.748 73.7207Z" fill="white" fill-opacity="0.05"/>
<path d="M603.14 752.135C603.969 752.135 604.64 751.463 604.64 750.635C604.64 749.806 603.969 749.135 603.14 749.135C602.312 749.135 601.64 749.806 601.64 750.635C601.64 751.463 602.312 752.135 603.14 752.135Z" fill="white" fill-opacity="0.25"/>
<path d="M419.779 675.914C420.607 675.914 421.279 675.242 421.279 674.414C421.279 673.586 420.607 672.914 419.779 672.914C418.95 672.914 418.279 673.586 418.279 674.414C418.279 675.242 418.95 675.914 419.779 675.914Z" fill="white" fill-opacity="0.15"/>
<path d="M891.83 177.162C892.659 177.162 893.33 176.491 893.33 175.662C893.33 174.834 892.659 174.162 891.83 174.162C891.002 174.162 890.33 174.834 890.33 175.662C890.33 176.491 891.002 177.162 891.83 177.162Z" fill="white" fill-opacity="0.25"/>
<path d="M73.7049 708.107L74.5709 709.607H72.8389L73.7049 708.107Z" fill="white" fill-opacity="0.25"/>
<path d="M862.958 604.441L863.824 605.941H862.092L862.958 604.441Z" fill="white"/>
<path d="M1010.44 26.2363L1011.3 27.7363H1009.57L1010.44 26.2363Z" fill="white" fill-opacity="0.05"/>
<path d="M1188.55 16.5801L1189.42 18.0801H1187.69L1188.55 16.5801Z" fill="white" fill-opacity="0.25"/>
<path d="M302.255 44.0664L303.121 45.5664H301.389L302.255 44.0664Z" fill="white" fill-opacity="0.25"/>
<path d="M760.65 55.2812L761.516 56.7812H759.784L760.65 55.2812Z" fill="white" fill-opacity="0.1"/>
<path d="M1203.82 88.4844L1204.69 89.9844H1202.96L1203.82 88.4844Z" fill="white" fill-opacity="0.25"/>
<path d="M526.059 75.1328L526.925 76.6328H525.193L526.059 75.1328Z" fill="white" fill-opacity="0.15"/>
<path d="M471.249 565.793L472.115 567.293H470.383L471.249 565.793Z" fill="white" fill-opacity="0.25"/>
<path d="M107.898 728.254L108.764 729.754H107.032L107.898 728.254Z" fill="white" fill-opacity="0.15"/>
<path d="M274.062 384.609L274.929 386.109H273.196L274.062 384.609Z" fill="white" fill-opacity="0.15"/>
<path d="M663.05 234.652L663.916 236.152H662.184L663.05 234.652Z" fill="white" fill-opacity="0.25"/>
<path d="M1107.8 535.512L1108.66 537.012H1106.93L1107.8 535.512Z" fill="white"/>
<path d="M983.038 452.809L983.904 454.309H982.172L983.038 452.809Z" fill="white" fill-opacity="0.05"/>
<path d="M467.197 11.125L468.063 12.625H466.331L467.197 11.125Z" fill="white" fill-opacity="0.25"/>
<path d="M755.636 12.1992L756.502 13.6992H754.77L755.636 12.1992Z" fill="white" fill-opacity="0.15"/>
<path d="M766.848 768.154L767.714 769.654H765.982L766.848 768.154Z" fill="white" fill-opacity="0.05"/>
<path d="M1216.08 101.678L1216.95 103.178H1215.21L1216.08 101.678Z" fill="white" fill-opacity="0.1"/>
<path d="M327.656 313.492L328.522 314.992H326.79L327.656 313.492Z" fill="white" fill-opacity="0.1"/>
<path d="M706.158 665.959L707.024 667.459H705.292L706.158 665.959Z" fill="white" fill-opacity="0.1"/>
<path d="M1000.35 360.773L1001.22 362.273H999.488L1000.35 360.773Z" fill="white" fill-opacity="0.15"/>
<path d="M348.399 170.627L349.265 172.127H347.533L348.399 170.627Z" fill="white" fill-opacity="0.1"/>
<path d="M669.919 675.48L670.785 676.98H669.053L669.919 675.48Z" fill="white" fill-opacity="0.15"/>
<path d="M237.493 519.688L238.359 521.188H236.627L237.493 519.688Z" fill="white" fill-opacity="0.1"/>
<path d="M760.762 516.289L761.628 517.789H759.896L760.762 516.289Z" fill="white"/>
<path d="M602.87 144.719L603.736 146.219H602.004L602.87 144.719Z" fill="white" fill-opacity="0.25"/>
<path d="M411.064 632.418L411.93 633.918H410.198L411.064 632.418Z" fill="white" fill-opacity="0.1"/>
<path d="M359.511 706.043L360.377 707.543H358.645L359.511 706.043Z" fill="white" fill-opacity="0.15"/>
<path d="M300.902 517.008L301.768 518.508H300.036L300.902 517.008Z" fill="white" fill-opacity="0.25"/>
<path d="M224.362 144.402L225.228 145.902H223.496L224.362 144.402Z" fill="white" fill-opacity="0.1"/>
<path d="M749.987 753.83L750.853 755.33H749.121L749.987 753.83Z" fill="white" fill-opacity="0.05"/>
<g filter="url(#filter4_f_745_2763)">
<path d="M652 195.5C652 196.881 659.369 198 668.458 198C677.548 198 684.917 196.881 684.917 195.5C684.917 194.119 677.548 193 668.458 193C659.369 193 652 194.119 652 195.5Z" fill="white"/>
</g>
</g>
<defs>
<filter id="filter0_f_745_2763" x="221.959" y="-1028" width="1112.29" height="1785.99" filterUnits="userSpaceOnUse" color-interpolation-filters="sRGB">
<feFlood flood-opacity="0" result="BackgroundImageFix"/>
<feBlend mode="normal" in="SourceGraphic" in2="BackgroundImageFix" result="shape"/>
<feGaussianBlur stdDeviation="48" result="effect1_foregroundBlur_745_2763"/>
</filter>
<filter id="filter1_f_745_2763" x="418.249" y="-896" width="1042" height="1664.24" filterUnits="userSpaceOnUse" color-interpolation-filters="sRGB">
<feFlood flood-opacity="0" result="BackgroundImageFix"/>
<feBlend mode="normal" in="SourceGraphic" in2="BackgroundImageFix" result="shape"/>
<feGaussianBlur stdDeviation="48" result="effect1_foregroundBlur_745_2763"/>
</filter>
<filter id="filter2_f_745_2763" x="254.296" y="-1007" width="1169.95" height="1885.86" filterUnits="userSpaceOnUse" color-interpolation-filters="sRGB">
<feFlood flood-opacity="0" result="BackgroundImageFix"/>
<feBlend mode="normal" in="SourceGraphic" in2="BackgroundImageFix" result="shape"/>
<feGaussianBlur stdDeviation="48" result="effect1_foregroundBlur_745_2763"/>
</filter>
<filter id="filter3_f_745_2763" x="303.249" y="-864" width="1042" height="1664.24" filterUnits="userSpaceOnUse" color-interpolation-filters="sRGB">
<feFlood flood-opacity="0" result="BackgroundImageFix"/>
<feBlend mode="normal" in="SourceGraphic" in2="BackgroundImageFix" result="shape"/>
<feGaussianBlur stdDeviation="48" result="effect1_foregroundBlur_745_2763"/>
</filter>
<filter id="filter4_f_745_2763" x="612" y="153" width="112.917" height="85" filterUnits="userSpaceOnUse" color-interpolation-filters="sRGB">
<feFlood flood-opacity="0" result="BackgroundImageFix"/>
<feBlend mode="normal" in="SourceGraphic" in2="BackgroundImageFix" result="shape"/>
<feGaussianBlur stdDeviation="20" result="effect1_foregroundBlur_745_2763"/>
</filter>
<linearGradient id="paint0_linear_745_2763" x1="1238.25" y1="-932" x2="317.959" y2="661.989" gradientUnits="userSpaceOnUse">
<stop stop-color="white"/>
<stop offset="1" stop-color="white" stop-opacity="0.54"/>
</linearGradient>
<linearGradient id="paint1_linear_745_2763" x1="888" y1="24" x2="666" y2="451.5" gradientUnits="userSpaceOnUse">
<stop stop-color="white"/>
<stop offset="1" stop-color="white" stop-opacity="0"/>
</linearGradient>
<linearGradient id="paint2_linear_745_2763" x1="780.367" y1="37.0723" x2="528.335" y2="530.468" gradientUnits="userSpaceOnUse">
<stop stop-color="white"/>
<stop offset="1" stop-color="white" stop-opacity="0"/>
</linearGradient>
<linearGradient id="paint3_linear_745_2763" x1="773" y1="56" x2="551" y2="483.5" gradientUnits="userSpaceOnUse">
<stop stop-color="white"/>
<stop offset="1" stop-color="white" stop-opacity="0"/>
</linearGradient>
<linearGradient id="paint4_linear_745_2763" x1="191.188" y1="178.176" x2="191.188" y2="282.307" gradientUnits="userSpaceOnUse">
<stop stop-color="white" stop-opacity="0"/>
<stop offset="1" stop-color="white"/>
</linearGradient>
<linearGradient id="paint5_linear_745_2763" x1="402.5" y1="485.408" x2="402.5" y2="582.683" gradientUnits="userSpaceOnUse">
<stop stop-color="white" stop-opacity="0"/>
<stop offset="1" stop-color="white"/>
</linearGradient>
<linearGradient id="paint6_linear_745_2763" x1="1145.19" y1="479.631" x2="1145.19" y2="583.762" gradientUnits="userSpaceOnUse">
<stop stop-color="white" stop-opacity="0"/>
<stop offset="1" stop-color="white"/>
</linearGradient>
<linearGradient id="paint7_linear_745_2763" x1="403.188" y1="73.1973" x2="403.188" y2="177.329" gradientUnits="userSpaceOnUse">
<stop stop-color="white" stop-opacity="0"/>
<stop offset="1" stop-color="white"/>
</linearGradient>
<radialGradient id="paint8_radial_745_2763" cx="0" cy="0" r="1" gradientUnits="userSpaceOnUse" gradientTransform="translate(720.167 311.362) rotate(90) scale(575.326 899.522)">
<stop stop-color="white"/>
<stop offset="1" stop-color="white" stop-opacity="0"/>
</radialGradient>
<linearGradient id="paint9_linear_745_2763" x1="932.188" y1="72.2344" x2="932.188" y2="176.366" gradientUnits="userSpaceOnUse">
<stop stop-color="white" stop-opacity="0"/>
<stop offset="1" stop-color="white"/>
</linearGradient>
</defs>
</svg>
